<svg width="1259" height="1080" viewBox="0 0 1259 1080" fill="none" xmlns="http://www.w3.org/2000/svg">
<g clip-path="url(#clip0_1_839)">
<mask id="mask0_1_839" style="mask-type:luminance" maskUnits="userSpaceOnUse" x="0" y="0" width="1259" height="1080">
<path d="M1259 0H0V1080H1259V0Z" fill="white"/>
</mask>
<g mask="url(#mask0_1_839)">
<path d="M1259 0H0V1080H1259V0Z" fill="#373940"/>
<path d="M32 28L28 32L32 28Z" stroke="#19191B"/>
<path d="M25 90C25 91.3261 25.5268 92.5979 26.4645 93.5355C27.4021 94.4732 28.6739 95 30 95C31.3261 95 32.5979 94.4732 33.5355 93.5355C34.4732 92.5979 35 91.3261 35 90C35 88.6739 34.4732 87.4021 33.5355 86.4645C32.5979 85.5268 31.3261 85 30 85C28.6739 85 27.4021 85.5268 26.4645 86.4645C25.5268 87.4021 25 88.6739 25 90V90Z" stroke="#19191B"/>
<path d="M27 150C27 150.796 27.3161 151.559 27.8787 152.121C28.4413 152.684 29.2044 153 30 153C30.7956 153 31.5587 152.684 32.1213 152.121C32.6839 151.559 33 150.796 33 150C33 149.204 32.6839 148.441 32.1213 147.879C31.5587 147.316 30.7956 147 30 147C29.2044 147 28.4413 147.316 27.8787 147.879C27.3161 148.441 27 149.204 27 150V150Z" stroke="#19191B"/>
<path d="M32 208L28 212L32 208Z" stroke="#19191B"/>
<path d="M36 264L24 276L36 264Z" stroke="#19191B"/>
<path d="M32 328L28 332L32 328Z" stroke="#19191B"/>
<path d="M25 390C25 391.326 25.5268 392.598 26.4645 393.536C27.4021 394.473 28.6739 395 30 395C31.3261 395 32.5979 394.473 33.5355 393.536C34.4732 392.598 35 391.326 35 390C35 388.674 34.4732 387.402 33.5355 386.464C32.5979 385.527 31.3261 385 30 385C28.6739 385 27.4021 385.527 26.4645 386.464C25.5268 387.402 25 388.674 25 390V390Z" stroke="#19191B"/>
<path d="M27 450C27 450.796 27.3161 451.559 27.8787 452.121C28.4413 452.684 29.2044 453 30 453C30.7956 453 31.5587 452.684 32.1213 452.121C32.6839 451.559 33 450.796 33 450C33 449.204 32.6839 448.441 32.1213 447.879C31.5587 447.316 30.7956 447 30 447C29.2044 447 28.4413 447.316 27.8787 447.879C27.3161 448.441 27 449.204 27 450V450Z" stroke="#19191B"/>
<path d="M29 510C29 510.265 29.1054 510.52 29.2929 510.707C29.4804 510.895 29.7348 511 30 511C30.2652 511 30.5196 510.895 30.7071 510.707C30.8946 510.52 31 510.265 31 510C31 509.735 30.8946 509.48 30.7071 509.293C30.5196 509.105 30.2652 509 30 509C29.7348 509 29.4804 509.105 29.2929 509.293C29.1054 509.48 29 509.735 29 510V510Z" stroke="#19191B"/>
<path d="M25 570C25 571.326 25.5268 572.598 26.4645 573.536C27.4021 574.473 28.6739 575 30 575C31.3261 575 32.5979 574.473 33.5355 573.536C34.4732 572.598 35 571.326 35 570C35 568.674 34.4732 567.402 33.5355 566.464C32.5979 565.527 31.3261 565 30 565C28.6739 565 27.4021 565.527 26.4645 566.464C25.5268 567.402 25 568.674 25 570V570Z" stroke="#19191B"/>
<path d="M32 628L28 632L32 628Z" stroke="#19191B"/>
<path d="M25 690C25 691.326 25.5268 692.598 26.4645 693.536C27.4021 694.473 28.6739 695 30 695C31.3261 695 32.5979 694.473 33.5355 693.536C34.4732 692.598 35 691.326 35 690C35 688.674 34.4732 687.402 33.5355 686.464C32.5979 685.527 31.3261 685 30 685C28.6739 685 27.4021 685.527 26.4645 686.464C25.5268 687.402 25 688.674 25 690V690Z" stroke="#19191B"/>
<path d="M96 24L84 36L96 24Z" stroke="#19191B"/>
<path d="M85 90C85 91.3261 85.5268 92.5979 86.4645 93.5355C87.4021 94.4732 88.6739 95 90 95C91.3261 95 92.5979 94.4732 93.5355 93.5355C94.4732 92.5979 95 91.3261 95 90C95 88.6739 94.4732 87.4021 93.5355 86.4645C92.5979 85.5268 91.3261 85 90 85C88.6739 85 87.4021 85.5268 86.4645 86.4645C85.5268 87.4021 85 88.6739 85 90V90Z" stroke="#19191B"/>
<path d="M85 150C85 151.326 85.5268 152.598 86.4645 153.536C87.4021 154.473 88.6739 155 90 155C91.3261 155 92.5979 154.473 93.5355 153.536C94.4732 152.598 95 151.326 95 150C95 148.674 94.4732 147.402 93.5355 146.464C92.5979 145.527 91.3261 145 90 145C88.6739 145 87.4021 145.527 86.4645 146.464C85.5268 147.402 85 148.674 85 150V150Z" stroke="#19191B"/>
<path d="M92 208L88 212L92 208Z" stroke="#19191B"/>
<path d="M85 270C85 271.326 85.5268 272.598 86.4645 273.536C87.4021 274.473 88.6739 275 90 275C91.3261 275 92.5979 274.473 93.5355 273.536C94.4732 272.598 95 271.326 95 270C95 268.674 94.4732 267.402 93.5355 266.464C92.5979 265.527 91.3261 265 90 265C88.6739 265 87.4021 265.527 86.4645 266.464C85.5268 267.402 85 268.674 85 270V270Z" stroke="#19191B"/>
<path d="M120 300L60 360L120 300Z" stroke="#19191B" stroke-width="3"/>
<path d="M85 390C85 391.326 85.5268 392.598 86.4645 393.536C87.4021 394.473 88.6739 395 90 395C91.3261 395 92.5979 394.473 93.5355 393.536C94.4732 392.598 95 391.326 95 390C95 388.674 94.4732 387.402 93.5355 386.464C92.5979 385.527 91.3261 385 90 385C88.6739 385 87.4021 385.527 86.4645 386.464C85.5268 387.402 85 388.674 85 390V390Z" stroke="#19191B"/>
<path d="M87 450C87 450.796 87.3161 451.559 87.8787 452.121C88.4413 452.684 89.2044 453 90 453C90.7956 453 91.5587 452.684 92.1213 452.121C92.6839 451.559 93 450.796 93 450C93 449.204 92.6839 448.441 92.1213 447.879C91.5587 447.316 90.7956 447 90 447C89.2044 447 88.4413 447.316 87.8787 447.879C87.3161 448.441 87 449.204 87 450V450Z" stroke="#19191B"/>
<path d="M92 508L88 512L92 508Z" stroke="#19191B"/>
<path d="M120 540L60 600L120 540Z" stroke="#19191B" stroke-width="3"/>
<path d="M92 628L88 632L92 628Z" stroke="#19191B"/>
<path d="M120 660L60 720L120 660Z" stroke="#19191B" stroke-width="3"/>
<path d="M147 30C147 30.7956 147.316 31.5587 147.879 32.1213C148.441 32.6839 149.204 33 150 33C150.796 33 151.559 32.6839 152.121 32.1213C152.684 31.5587 153 30.7956 153 30C153 29.2044 152.684 28.4413 152.121 27.8787C151.559 27.3161 150.796 27 150 27C149.204 27 148.441 27.3161 147.879 27.8787C147.316 28.4413 147 29.2044 147 30V30Z" stroke="#19191B"/>
<path d="M180 60L120 120L180 60Z" stroke="#19191B" stroke-width="3"/>
<path d="M145 150C145 151.326 145.527 152.598 146.464 153.536C147.402 154.473 148.674 155 150 155C151.326 155 152.598 154.473 153.536 153.536C154.473 152.598 155 151.326 155 150C155 148.674 154.473 147.402 153.536 146.464C152.598 145.527 151.326 145 150 145C148.674 145 147.402 145.527 146.464 146.464C145.527 147.402 145 148.674 145 150V150Z" stroke="#19191B"/>
<path d="M156 204L144 216L156 204Z" stroke="#19191B"/>
<path d="M145 270C145 271.326 145.527 272.598 146.464 273.536C147.402 274.473 148.674 275 150 275C151.326 275 152.598 274.473 153.536 273.536C154.473 272.598 155 271.326 155 270C155 268.674 154.473 267.402 153.536 266.464C152.598 265.527 151.326 265 150 265C148.674 265 147.402 265.527 146.464 266.464C145.527 267.402 145 268.674 145 270V270Z" stroke="#19191B"/>
<path d="M145 330C145 331.326 145.527 332.598 146.464 333.536C147.402 334.473 148.674 335 150 335C151.326 335 152.598 334.473 153.536 333.536C154.473 332.598 155 331.326 155 330C155 328.674 154.473 327.402 153.536 326.464C152.598 325.527 151.326 325 150 325C148.674 325 147.402 325.527 146.464 326.464C145.527 327.402 145 328.674 145 330V330Z" stroke="#19191B"/>
<path d="M156 384L144 396L156 384Z" stroke="#19191B"/>
<path d="M152 448L148 452L152 448Z" stroke="#19191B"/>
<path d="M145 510C145 511.326 145.527 512.598 146.464 513.536C147.402 514.473 148.674 515 150 515C151.326 515 152.598 514.473 153.536 513.536C154.473 512.598 155 511.326 155 510C155 508.674 154.473 507.402 153.536 506.464C152.598 505.527 151.326 505 150 505C148.674 505 147.402 505.527 146.464 506.464C145.527 507.402 145 508.674 145 510V510Z" stroke="#19191B"/>
<path d="M156 564L144 576L156 564Z" stroke="#19191B"/>
<path d="M145 630C145 631.326 145.527 632.598 146.464 633.536C147.402 634.473 148.674 635 150 635C151.326 635 152.598 634.473 153.536 633.536C154.473 632.598 155 631.326 155 630C155 628.674 154.473 627.402 153.536 626.464C152.598 625.527 151.326 625 150 625C148.674 625 147.402 625.527 146.464 626.464C145.527 627.402 145 628.674 145 630V630Z" stroke="#19191B"/>
<path d="M156 684L144 696L156 684Z" stroke="#19191B"/>
<path d="M216 24L204 36L216 24Z" stroke="#19191B"/>
<path d="M240 60L180 120L240 60Z" stroke="#19191B" stroke-width="3"/>
<path d="M207 150C207 150.796 207.316 151.559 207.879 152.121C208.441 152.684 209.204 153 210 153C210.796 153 211.559 152.684 212.121 152.121C212.684 151.559 213 150.796 213 150C213 149.204 212.684 148.441 212.121 147.879C211.559 147.316 210.796 147 210 147C209.204 147 208.441 147.316 207.879 147.879C207.316 148.441 207 149.204 207 150V150Z" stroke="#19191B"/>
<path d="M216 204L204 216L216 204Z" stroke="#19191B"/>
<path d="M216 264L204 276L216 264Z" stroke="#19191B"/>
<path d="M209 330C209 330.265 209.105 330.52 209.293 330.707C209.48 330.895 209.735 331 210 331C210.265 331 210.52 330.895 210.707 330.707C210.895 330.52 211 330.265 211 330C211 329.735 210.895 329.48 210.707 329.293C210.52 329.105 210.265 329 210 329C209.735 329 209.48 329.105 209.293 329.293C209.105 329.48 209 329.735 209 330V330Z" stroke="#19191B"/>
<path d="M216 384L204 396L216 384Z" stroke="#19191B"/>
<path d="M205 450C205 451.326 205.527 452.598 206.464 453.536C207.402 454.473 208.674 455 210 455C211.326 455 212.598 454.473 213.536 453.536C214.473 452.598 215 451.326 215 450C215 448.674 214.473 447.402 213.536 446.464C212.598 445.527 211.326 445 210 445C208.674 445 207.402 445.527 206.464 446.464C205.527 447.402 205 448.674 205 450V450Z" stroke="#19191B"/>
<path d="M216 504L204 516L216 504Z" stroke="#19191B"/>
<path d="M205 570C205 571.326 205.527 572.598 206.464 573.536C207.402 574.473 208.674 575 210 575C211.326 575 212.598 574.473 213.536 573.536C214.473 572.598 215 571.326 215 570C215 568.674 214.473 567.402 213.536 566.464C212.598 565.527 211.326 565 210 565C208.674 565 207.402 565.527 206.464 566.464C205.527 567.402 205 568.674 205 570V570Z" stroke="#19191B"/>
<path d="M205 630C205 631.326 205.527 632.598 206.464 633.536C207.402 634.473 208.674 635 210 635C211.326 635 212.598 634.473 213.536 633.536C214.473 632.598 215 631.326 215 630C215 628.674 214.473 627.402 213.536 626.464C212.598 625.527 211.326 625 210 625C208.674 625 207.402 625.527 206.464 626.464C205.527 627.402 205 628.674 205 630V630Z" stroke="#19191B"/>
<path d="M216 684L204 696L216 684Z" stroke="#19191B"/>
<path d="M265 30C265 31.3261 265.527 32.5979 266.464 33.5355C267.402 34.4732 268.674 35 270 35C271.326 35 272.598 34.4732 273.536 33.5355C274.473 32.5979 275 31.3261 275 30C275 28.6739 274.473 27.4021 273.536 26.4645C272.598 25.5268 271.326 25 270 25C268.674 25 267.402 25.5268 266.464 26.4645C265.527 27.4021 265 28.6739 265 30V30Z" stroke="#19191B"/>
<path d="M267 90C267 90.7956 267.316 91.5587 267.879 92.1213C268.441 92.6839 269.204 93 270 93C270.796 93 271.559 92.6839 272.121 92.1213C272.684 91.5587 273 90.7956 273 90C273 89.2044 272.684 88.4413 272.121 87.8787C271.559 87.3161 270.796 87 270 87C269.204 87 268.441 87.3161 267.879 87.8787C267.316 88.4413 267 89.2044 267 90V90Z" stroke="#19191B"/>
<path d="M276 144L264 156L276 144Z" stroke="#19191B"/>
<path d="M265 210C265 211.326 265.527 212.598 266.464 213.536C267.402 214.473 268.674 215 270 215C271.326 215 272.598 214.473 273.536 213.536C274.473 212.598 275 211.326 275 210C275 208.674 274.473 207.402 273.536 206.464C272.598 205.527 271.326 205 270 205C268.674 205 267.402 205.527 266.464 206.464C265.527 207.402 265 208.674 265 210V210Z" stroke="#19191B"/>
<path d="M272 268L268 272L272 268Z" stroke="#19191B"/>
<path d="M276 324L264 336L276 324Z" stroke="#19191B"/>
<path d="M276 384L264 396L276 384Z" stroke="#19191B"/>
<path d="M276 444L264 456L276 444Z" stroke="#19191B"/>
<path d="M267 510C267 510.796 267.316 511.559 267.879 512.121C268.441 512.684 269.204 513 270 513C270.796 513 271.559 512.684 272.121 512.121C272.684 511.559 273 510.796 273 510C273 509.204 272.684 508.441 272.121 507.879C271.559 507.316 270.796 507 270 507C269.204 507 268.441 507.316 267.879 507.879C267.316 508.441 267 509.204 267 510V510Z" stroke="#19191B"/>
<path d="M272 568L268 572L272 568Z" stroke="#19191B"/>
<path d="M265 630C265 631.326 265.527 632.598 266.464 633.536C267.402 634.473 268.674 635 270 635C271.326 635 272.598 634.473 273.536 633.536C274.473 632.598 275 631.326 275 630C275 628.674 274.473 627.402 273.536 626.464C272.598 625.527 271.326 625 270 625C268.674 625 267.402 625.527 266.464 626.464C265.527 627.402 265 628.674 265 630V630Z" stroke="#19191B"/>
<path d="M265 690C265 691.326 265.527 692.598 266.464 693.536C267.402 694.473 268.674 695 270 695C271.326 695 272.598 694.473 273.536 693.536C274.473 692.598 275 691.326 275 690C275 688.674 274.473 687.402 273.536 686.464C272.598 685.527 271.326 685 270 685C268.674 685 267.402 685.527 266.464 686.464C265.527 687.402 265 688.674 265 690V690Z" stroke="#19191B"/>
<path d="M325 30C325 31.3261 325.527 32.5979 326.464 33.5355C327.402 34.4732 328.674 35 330 35C331.326 35 332.598 34.4732 333.536 33.5355C334.473 32.5979 335 31.3261 335 30C335 28.6739 334.473 27.4021 333.536 26.4645C332.598 25.5268 331.326 25 330 25C328.674 25 327.402 25.5268 326.464 26.4645C325.527 27.4021 325 28.6739 325 30V30Z" stroke="#19191B"/>
<path d="M336 84L324 96L336 84Z" stroke="#19191B"/>
<path d="M360 120L300 180L360 120Z" stroke="#19191B" stroke-width="3"/>
<path d="M329 210C329 210.265 329.105 210.52 329.293 210.707C329.48 210.895 329.735 211 330 211C330.265 211 330.52 210.895 330.707 210.707C330.895 210.52 331 210.265 331 210C331 209.735 330.895 209.48 330.707 209.293C330.52 209.105 330.265 209 330 209C329.735 209 329.48 209.105 329.293 209.293C329.105 209.48 329 209.735 329 210V210Z" stroke="#19191B"/>
<path d="M325 270C325 271.326 325.527 272.598 326.464 273.536C327.402 274.473 328.674 275 330 275C331.326 275 332.598 274.473 333.536 273.536C334.473 272.598 335 271.326 335 270C335 268.674 334.473 267.402 333.536 266.464C332.598 265.527 331.326 265 330 265C328.674 265 327.402 265.527 326.464 266.464C325.527 267.402 325 268.674 325 270V270Z" stroke="#19191B"/>
<path d="M327 330C327 330.796 327.316 331.559 327.879 332.121C328.441 332.684 329.204 333 330 333C330.796 333 331.559 332.684 332.121 332.121C332.684 331.559 333 330.796 333 330C333 329.204 332.684 328.441 332.121 327.879C331.559 327.316 330.796 327 330 327C329.204 327 328.441 327.316 327.879 327.879C327.316 328.441 327 329.204 327 330V330Z" stroke="#19191B"/>
<path d="M325 390C325 391.326 325.527 392.598 326.464 393.536C327.402 394.473 328.674 395 330 395C331.326 395 332.598 394.473 333.536 393.536C334.473 392.598 335 391.326 335 390C335 388.674 334.473 387.402 333.536 386.464C332.598 385.527 331.326 385 330 385C328.674 385 327.402 385.527 326.464 386.464C325.527 387.402 325 388.674 325 390V390Z" stroke="#19191B"/>
<path d="M332 448L328 452L332 448Z" stroke="#19191B"/>
<path d="M325 510C325 511.326 325.527 512.598 326.464 513.536C327.402 514.473 328.674 515 330 515C331.326 515 332.598 514.473 333.536 513.536C334.473 512.598 335 511.326 335 510C335 508.674 334.473 507.402 333.536 506.464C332.598 505.527 331.326 505 330 505C328.674 505 327.402 505.527 326.464 506.464C325.527 507.402 325 508.674 325 510V510Z" stroke="#19191B"/>
<path d="M325 570C325 571.326 325.527 572.598 326.464 573.536C327.402 574.473 328.674 575 330 575C331.326 575 332.598 574.473 333.536 573.536C334.473 572.598 335 571.326 335 570C335 568.674 334.473 567.402 333.536 566.464C332.598 565.527 331.326 565 330 565C328.674 565 327.402 565.527 326.464 566.464C325.527 567.402 325 568.674 325 570V570Z" stroke="#19191B"/>
<path d="M336 624L324 636L336 624Z" stroke="#19191B"/>
<path d="M332 688L328 692L332 688Z" stroke="#19191B"/>
<path d="M385 30C385 31.3261 385.527 32.5979 386.464 33.5355C387.402 34.4732 388.674 35 390 35C391.326 35 392.598 34.4732 393.536 33.5355C394.473 32.5979 395 31.3261 395 30C395 28.6739 394.473 27.4021 393.536 26.4645C392.598 25.5268 391.326 25 390 25C388.674 25 387.402 25.5268 386.464 26.4645C385.527 27.4021 385 28.6739 385 30V30Z" stroke="#19191B"/>
<path d="M387 90C387 90.7956 387.316 91.5587 387.879 92.1213C388.441 92.6839 389.204 93 390 93C390.796 93 391.559 92.6839 392.121 92.1213C392.684 91.5587 393 90.7956 393 90C393 89.2044 392.684 88.4413 392.121 87.8787C391.559 87.3161 390.796 87 390 87C389.204 87 388.441 87.3161 387.879 87.8787C387.316 88.4413 387 89.2044 387 90V90Z" stroke="#19191B"/>
<path d="M389 150C389 150.265 389.105 150.52 389.293 150.707C389.48 150.895 389.735 151 390 151C390.265 151 390.52 150.895 390.707 150.707C390.895 150.52 391 150.265 391 150C391 149.735 390.895 149.48 390.707 149.293C390.52 149.105 390.265 149 390 149C389.735 149 389.48 149.105 389.293 149.293C389.105 149.48 389 149.735 389 150V150Z" stroke="#19191B"/>
<path d="M385 210C385 211.326 385.527 212.598 386.464 213.536C387.402 214.473 388.674 215 390 215C391.326 215 392.598 214.473 393.536 213.536C394.473 212.598 395 211.326 395 210C395 208.674 394.473 207.402 393.536 206.464C392.598 205.527 391.326 205 390 205C388.674 205 387.402 205.527 386.464 206.464C385.527 207.402 385 208.674 385 210V210Z" stroke="#19191B"/>
<path d="M385 270C385 271.326 385.527 272.598 386.464 273.536C387.402 274.473 388.674 275 390 275C391.326 275 392.598 274.473 393.536 273.536C394.473 272.598 395 271.326 395 270C395 268.674 394.473 267.402 393.536 266.464C392.598 265.527 391.326 265 390 265C388.674 265 387.402 265.527 386.464 266.464C385.527 267.402 385 268.674 385 270V270Z" stroke="#19191B"/>
<path d="M420 300L360 360L420 300Z" stroke="#19191B" stroke-width="3"/>
<path d="M385 390C385 391.326 385.527 392.598 386.464 393.536C387.402 394.473 388.674 395 390 395C391.326 395 392.598 394.473 393.536 393.536C394.473 392.598 395 391.326 395 390C395 388.674 394.473 387.402 393.536 386.464C392.598 385.527 391.326 385 390 385C388.674 385 387.402 385.527 386.464 386.464C385.527 387.402 385 388.674 385 390V390Z" stroke="#19191B"/>
<path d="M385 450C385 451.326 385.527 452.598 386.464 453.536C387.402 454.473 388.674 455 390 455C391.326 455 392.598 454.473 393.536 453.536C394.473 452.598 395 451.326 395 450C395 448.674 394.473 447.402 393.536 446.464C392.598 445.527 391.326 445 390 445C388.674 445 387.402 445.527 386.464 446.464C385.527 447.402 385 448.674 385 450V450Z" stroke="#19191B"/>
<path d="M396 504L384 516L396 504Z" stroke="#19191B"/>
<path d="M392 568L388 572L392 568Z" stroke="#19191B"/>
<path d="M387 630C387 630.796 387.316 631.559 387.879 632.121C388.441 632.684 389.204 633 390 633C390.796 633 391.559 632.684 392.121 632.121C392.684 631.559 393 630.796 393 630C393 629.204 392.684 628.441 392.121 627.879C391.559 627.316 390.796 627 390 627C389.204 627 388.441 627.316 387.879 627.879C387.316 628.441 387 629.204 387 630V630Z" stroke="#19191B"/>
<path d="M392 688L388 692L392 688Z" stroke="#19191B"/>
<path d="M447 30C447 30.7956 447.316 31.5587 447.879 32.1213C448.441 32.6839 449.204 33 450 33C450.796 33 451.559 32.6839 452.121 32.1213C452.684 31.5587 453 30.7956 453 30C453 29.2044 452.684 28.4413 452.121 27.8787C451.559 27.3161 450.796 27 450 27C449.204 27 448.441 27.3161 447.879 27.8787C447.316 28.4413 447 29.2044 447 30V30Z" stroke="#19191B"/>
<path d="M445 90C445 91.3261 445.527 92.5979 446.464 93.5355C447.402 94.4732 448.674 95 450 95C451.326 95 452.598 94.4732 453.536 93.5355C454.473 92.5979 455 91.3261 455 90C455 88.6739 454.473 87.4021 453.536 86.4645C452.598 85.5268 451.326 85 450 85C448.674 85 447.402 85.5268 446.464 86.4645C445.527 87.4021 445 88.6739 445 90V90Z" stroke="#19191B"/>
<path d="M447 150C447 150.796 447.316 151.559 447.879 152.121C448.441 152.684 449.204 153 450 153C450.796 153 451.559 152.684 452.121 152.121C452.684 151.559 453 150.796 453 150C453 149.204 452.684 148.441 452.121 147.879C451.559 147.316 450.796 147 450 147C449.204 147 448.441 147.316 447.879 147.879C447.316 148.441 447 149.204 447 150V150Z" stroke="#19191B"/>
<path d="M449 210C449 210.265 449.105 210.52 449.293 210.707C449.48 210.895 449.735 211 450 211C450.265 211 450.52 210.895 450.707 210.707C450.895 210.52 451 210.265 451 210C451 209.735 450.895 209.48 450.707 209.293C450.52 209.105 450.265 209 450 209C449.735 209 449.48 209.105 449.293 209.293C449.105 209.48 449 209.735 449 210V210Z" stroke="#19191B"/>
<path d="M456 264L444 276L456 264Z" stroke="#19191B"/>
<path d="M452 328L448 332L452 328Z" stroke="#19191B"/>
<path d="M456 384L444 396L456 384Z" stroke="#19191B"/>
<path d="M452 448L448 452L452 448Z" stroke="#19191B"/>
<path d="M445 510C445 511.326 445.527 512.598 446.464 513.536C447.402 514.473 448.674 515 450 515C451.326 515 452.598 514.473 453.536 513.536C454.473 512.598 455 511.326 455 510C455 508.674 454.473 507.402 453.536 506.464C452.598 505.527 451.326 505 450 505C448.674 505 447.402 505.527 446.464 506.464C445.527 507.402 445 508.674 445 510V510Z" stroke="#19191B"/>
<path d="M445 570C445 571.326 445.527 572.598 446.464 573.536C447.402 574.473 448.674 575 450 575C451.326 575 452.598 574.473 453.536 573.536C454.473 572.598 455 571.326 455 570C455 568.674 454.473 567.402 453.536 566.464C452.598 565.527 451.326 565 450 565C448.674 565 447.402 565.527 446.464 566.464C445.527 567.402 445 568.674 445 570V570Z" stroke="#19191B"/>
<path d="M452 628L448 632L452 628Z" stroke="#19191B"/>
<path d="M445 690C445 691.326 445.527 692.598 446.464 693.536C447.402 694.473 448.674 695 450 695C451.326 695 452.598 694.473 453.536 693.536C454.473 692.598 455 691.326 455 690C455 688.674 454.473 687.402 453.536 686.464C452.598 685.527 451.326 685 450 685C448.674 685 447.402 685.527 446.464 686.464C445.527 687.402 445 688.674 445 690V690Z" stroke="#19191B"/>
<path d="M507 30C507 30.7956 507.316 31.5587 507.879 32.1213C508.441 32.6839 509.204 33 510 33C510.796 33 511.559 32.6839 512.121 32.1213C512.684 31.5587 513 30.7956 513 30C513 29.2044 512.684 28.4413 512.121 27.8787C511.559 27.3161 510.796 27 510 27C509.204 27 508.441 27.3161 507.879 27.8787C507.316 28.4413 507 29.2044 507 30V30Z" stroke="#19191B"/>
<path d="M512 88L508 92L512 88Z" stroke="#19191B"/>
<path d="M507 150C507 150.796 507.316 151.559 507.879 152.121C508.441 152.684 509.204 153 510 153C510.796 153 511.559 152.684 512.121 152.121C512.684 151.559 513 150.796 513 150C513 149.204 512.684 148.441 512.121 147.879C511.559 147.316 510.796 147 510 147C509.204 147 508.441 147.316 507.879 147.879C507.316 148.441 507 149.204 507 150V150Z" stroke="#19191B"/>
<path d="M505 210C505 211.326 505.527 212.598 506.464 213.536C507.402 214.473 508.674 215 510 215C511.326 215 512.598 214.473 513.536 213.536C514.473 212.598 515 211.326 515 210C515 208.674 514.473 207.402 513.536 206.464C512.598 205.527 511.326 205 510 205C508.674 205 507.402 205.527 506.464 206.464C505.527 207.402 505 208.674 505 210V210Z" stroke="#19191B"/>
<path d="M505 270C505 271.326 505.527 272.598 506.464 273.536C507.402 274.473 508.674 275 510 275C511.326 275 512.598 274.473 513.536 273.536C514.473 272.598 515 271.326 515 270C515 268.674 514.473 267.402 513.536 266.464C512.598 265.527 511.326 265 510 265C508.674 265 507.402 265.527 506.464 266.464C505.527 267.402 505 268.674 505 270V270Z" stroke="#19191B"/>
<path d="M507 330C507 330.796 507.316 331.559 507.879 332.121C508.441 332.684 509.204 333 510 333C510.796 333 511.559 332.684 512.121 332.121C512.684 331.559 513 330.796 513 330C513 329.204 512.684 328.441 512.121 327.879C511.559 327.316 510.796 327 510 327C509.204 327 508.441 327.316 507.879 327.879C507.316 328.441 507 329.204 507 330V330Z" stroke="#19191B"/>
<path d="M505 390C505 391.326 505.527 392.598 506.464 393.536C507.402 394.473 508.674 395 510 395C511.326 395 512.598 394.473 513.536 393.536C514.473 392.598 515 391.326 515 390C515 388.674 514.473 387.402 513.536 386.464C512.598 385.527 511.326 385 510 385C508.674 385 507.402 385.527 506.464 386.464C505.527 387.402 505 388.674 505 390V390Z" stroke="#19191B"/>
<path d="M505 450C505 451.326 505.527 452.598 506.464 453.536C507.402 454.473 508.674 455 510 455C511.326 455 512.598 454.473 513.536 453.536C514.473 452.598 515 451.326 515 450C515 448.674 514.473 447.402 513.536 446.464C512.598 445.527 511.326 445 510 445C508.674 445 507.402 445.527 506.464 446.464C505.527 447.402 505 448.674 505 450V450Z" stroke="#19191B"/>
<path d="M540 480L480 540L540 480Z" stroke="#19191B" stroke-width="3"/>
<path d="M507 570C507 570.796 507.316 571.559 507.879 572.121C508.441 572.684 509.204 573 510 573C510.796 573 511.559 572.684 512.121 572.121C512.684 571.559 513 570.796 513 570C513 569.204 512.684 568.441 512.121 567.879C511.559 567.316 510.796 567 510 567C509.204 567 508.441 567.316 507.879 567.879C507.316 568.441 507 569.204 507 570V570Z" stroke="#19191B"/>
<path d="M516 624L504 636L516 624Z" stroke="#19191B"/>
<path d="M509 690C509 690.265 509.105 690.52 509.293 690.707C509.48 690.895 509.735 691 510 691C510.265 691 510.52 690.895 510.707 690.707C510.895 690.52 511 690.265 511 690C511 689.735 510.895 689.48 510.707 689.293C510.52 689.105 510.265 689 510 689C509.735 689 509.48 689.105 509.293 689.293C509.105 689.48 509 689.735 509 690V690Z" stroke="#19191B"/>
<path d="M572 28L568 32L572 28Z" stroke="#19191B"/>
<path d="M572 88L568 92L572 88Z" stroke="#19191B"/>
<path d="M565 150C565 151.326 565.527 152.598 566.464 153.536C567.402 154.473 568.674 155 570 155C571.326 155 572.598 154.473 573.536 153.536C574.473 152.598 575 151.326 575 150C575 148.674 574.473 147.402 573.536 146.464C572.598 145.527 571.326 145 570 145C568.674 145 567.402 145.527 566.464 146.464C565.527 147.402 565 148.674 565 150V150Z" stroke="#19191B"/>
<path d="M567 210C567 210.796 567.316 211.559 567.879 212.121C568.441 212.684 569.204 213 570 213C570.796 213 571.559 212.684 572.121 212.121C572.684 211.559 573 210.796 573 210C573 209.204 572.684 208.441 572.121 207.879C571.559 207.316 570.796 207 570 207C569.204 207 568.441 207.316 567.879 207.879C567.316 208.441 567 209.204 567 210V210Z" stroke="#19191B"/>
<path d="M565 270C565 271.326 565.527 272.598 566.464 273.536C567.402 274.473 568.674 275 570 275C571.326 275 572.598 274.473 573.536 273.536C574.473 272.598 575 271.326 575 270C575 268.674 574.473 267.402 573.536 266.464C572.598 265.527 571.326 265 570 265C568.674 265 567.402 265.527 566.464 266.464C565.527 267.402 565 268.674 565 270V270Z" stroke="#19191B"/>
<path d="M567 330C567 330.796 567.316 331.559 567.879 332.121C568.441 332.684 569.204 333 570 333C570.796 333 571.559 332.684 572.121 332.121C572.684 331.559 573 330.796 573 330C573 329.204 572.684 328.441 572.121 327.879C571.559 327.316 570.796 327 570 327C569.204 327 568.441 327.316 567.879 327.879C567.316 328.441 567 329.204 567 330V330Z" stroke="#19191B"/>
<path d="M567 390C567 390.796 567.316 391.559 567.879 392.121C568.441 392.684 569.204 393 570 393C570.796 393 571.559 392.684 572.121 392.121C572.684 391.559 573 390.796 573 390C573 389.204 572.684 388.441 572.121 387.879C571.559 387.316 570.796 387 570 387C569.204 387 568.441 387.316 567.879 387.879C567.316 388.441 567 389.204 567 390V390Z" stroke="#19191B"/>
<path d="M565 450C565 451.326 565.527 452.598 566.464 453.536C567.402 454.473 568.674 455 570 455C571.326 455 572.598 454.473 573.536 453.536C574.473 452.598 575 451.326 575 450C575 448.674 574.473 447.402 573.536 446.464C572.598 445.527 571.326 445 570 445C568.674 445 567.402 445.527 566.464 446.464C565.527 447.402 565 448.674 565 450V450Z" stroke="#19191B"/>
<path d="M572 508L568 512L572 508Z" stroke="#19191B"/>
<path d="M576 564L564 576L576 564Z" stroke="#19191B"/>
<path d="M576 624L564 636L576 624Z" stroke="#19191B"/>
<path d="M569 690C569 690.265 569.105 690.52 569.293 690.707C569.48 690.895 569.735 691 570 691C570.265 691 570.52 690.895 570.707 690.707C570.895 690.52 571 690.265 571 690C571 689.735 570.895 689.48 570.707 689.293C570.52 689.105 570.265 689 570 689C569.735 689 569.48 689.105 569.293 689.293C569.105 689.48 569 689.735 569 690V690Z" stroke="#19191B"/>
<path d="M636 24L624 36L636 24Z" stroke="#19191B"/>
<path d="M625 90C625 91.3261 625.527 92.5979 626.464 93.5355C627.402 94.4732 628.674 95 630 95C631.326 95 632.598 94.4732 633.536 93.5355C634.473 92.5979 635 91.3261 635 90C635 88.6739 634.473 87.4021 633.536 86.4645C632.598 85.5268 631.326 85 630 85C628.674 85 627.402 85.5268 626.464 86.4645C625.527 87.4021 625 88.6739 625 90V90Z" stroke="#19191B"/>
<path d="M632 148L628 152L632 148Z" stroke="#19191B"/>
<path d="M629 210C629 210.265 629.105 210.52 629.293 210.707C629.48 210.895 629.735 211 630 211C630.265 211 630.52 210.895 630.707 210.707C630.895 210.52 631 210.265 631 210C631 209.735 630.895 209.48 630.707 209.293C630.52 209.105 630.265 209 630 209C629.735 209 629.48 209.105 629.293 209.293C629.105 209.48 629 209.735 629 210V210Z" stroke="#19191B"/>
<path d="M632 268L628 272L632 268Z" stroke="#19191B"/>
<path d="M636 324L624 336L636 324Z" stroke="#19191B"/>
<path d="M625 390C625 391.326 625.527 392.598 626.464 393.536C627.402 394.473 628.674 395 630 395C631.326 395 632.598 394.473 633.536 393.536C634.473 392.598 635 391.326 635 390C635 388.674 634.473 387.402 633.536 386.464C632.598 385.527 631.326 385 630 385C628.674 385 627.402 385.527 626.464 386.464C625.527 387.402 625 388.674 625 390V390Z" stroke="#19191B"/>
<path d="M660 420L600 480L660 420Z" stroke="#19191B" stroke-width="3"/>
<path d="M632 508L628 512L632 508Z" stroke="#19191B"/>
<path d="M625 570C625 571.326 625.527 572.598 626.464 573.536C627.402 574.473 628.674 575 630 575C631.326 575 632.598 574.473 633.536 573.536C634.473 572.598 635 571.326 635 570C635 568.674 634.473 567.402 633.536 566.464C632.598 565.527 631.326 565 630 565C628.674 565 627.402 565.527 626.464 566.464C625.527 567.402 625 568.674 625 570V570Z" stroke="#19191B"/>
<path d="M625 630C625 631.326 625.527 632.598 626.464 633.536C627.402 634.473 628.674 635 630 635C631.326 635 632.598 634.473 633.536 633.536C634.473 632.598 635 631.326 635 630C635 628.674 634.473 627.402 633.536 626.464C632.598 625.527 631.326 625 630 625C628.674 625 627.402 625.527 626.464 626.464C625.527 627.402 625 628.674 625 630V630Z" stroke="#19191B"/>
<path d="M625 690C625 691.326 625.527 692.598 626.464 693.536C627.402 694.473 628.674 695 630 695C631.326 695 632.598 694.473 633.536 693.536C634.473 692.598 635 691.326 635 690C635 688.674 634.473 687.402 633.536 686.464C632.598 685.527 631.326 685 630 685C628.674 685 627.402 685.527 626.464 686.464C625.527 687.402 625 688.674 625 690V690Z" stroke="#19191B"/>
<path d="M685 30C685 31.3261 685.527 32.5979 686.464 33.5355C687.402 34.4732 688.674 35 690 35C691.326 35 692.598 34.4732 693.536 33.5355C694.473 32.5979 695 31.3261 695 30C695 28.6739 694.473 27.4021 693.536 26.4645C692.598 25.5268 691.326 25 690 25C688.674 25 687.402 25.5268 686.464 26.4645C685.527 27.4021 685 28.6739 685 30V30Z" stroke="#19191B"/>
<path d="M696 84L684 96L696 84Z" stroke="#19191B"/>
<path d="M696 144L684 156L696 144Z" stroke="#19191B"/>
<path d="M685 210C685 211.326 685.527 212.598 686.464 213.536C687.402 214.473 688.674 215 690 215C691.326 215 692.598 214.473 693.536 213.536C694.473 212.598 695 211.326 695 210C695 208.674 694.473 207.402 693.536 206.464C692.598 205.527 691.326 205 690 205C688.674 205 687.402 205.527 686.464 206.464C685.527 207.402 685 208.674 685 210V210Z" stroke="#19191B"/>
<path d="M687 270C687 270.796 687.316 271.559 687.879 272.121C688.441 272.684 689.204 273 690 273C690.796 273 691.559 272.684 692.121 272.121C692.684 271.559 693 270.796 693 270C693 269.204 692.684 268.441 692.121 267.879C691.559 267.316 690.796 267 690 267C689.204 267 688.441 267.316 687.879 267.879C687.316 268.441 687 269.204 687 270V270Z" stroke="#19191B"/>
<path d="M687 330C687 330.796 687.316 331.559 687.879 332.121C688.441 332.684 689.204 333 690 333C690.796 333 691.559 332.684 692.121 332.121C692.684 331.559 693 330.796 693 330C693 329.204 692.684 328.441 692.121 327.879C691.559 327.316 690.796 327 690 327C689.204 327 688.441 327.316 687.879 327.879C687.316 328.441 687 329.204 687 330V330Z" stroke="#19191B"/>
<path d="M696 384L684 396L696 384Z" stroke="#19191B"/>
<path d="M685 450C685 451.326 685.527 452.598 686.464 453.536C687.402 454.473 688.674 455 690 455C691.326 455 692.598 454.473 693.536 453.536C694.473 452.598 695 451.326 695 450C695 448.674 694.473 447.402 693.536 446.464C692.598 445.527 691.326 445 690 445C688.674 445 687.402 445.527 686.464 446.464C685.527 447.402 685 448.674 685 450V450Z" stroke="#19191B"/>
<path d="M696 504L684 516L696 504Z" stroke="#19191B"/>
<path d="M692 568L688 572L692 568Z" stroke="#19191B"/>
<path d="M689 630C689 630.265 689.105 630.52 689.293 630.707C689.48 630.895 689.735 631 690 631C690.265 631 690.52 630.895 690.707 630.707C690.895 630.52 691 630.265 691 630C691 629.735 690.895 629.48 690.707 629.293C690.52 629.105 690.265 629 690 629C689.735 629 689.48 629.105 689.293 629.293C689.105 629.48 689 629.735 689 630V630Z" stroke="#19191B"/>
<path d="M696 684L684 696L696 684Z" stroke="#19191B"/>
<path d="M32 748L28 752L32 748Z" stroke="#19191B"/>
<path d="M25 810C25 811.326 25.5268 812.598 26.4645 813.536C27.4021 814.473 28.6739 815 30 815C31.3261 815 32.5979 814.473 33.5355 813.536C34.4732 812.598 35 811.326 35 810C35 808.674 34.4732 807.402 33.5355 806.464C32.5979 805.527 31.3261 805 30 805C28.6739 805 27.4021 805.527 26.4645 806.464C25.5268 807.402 25 808.674 25 810V810Z" stroke="#19191B"/>
<path d="M27 870C27 870.796 27.3161 871.559 27.8787 872.121C28.4413 872.684 29.2044 873 30 873C30.7956 873 31.5587 872.684 32.1213 872.121C32.6839 871.559 33 870.796 33 870C33 869.204 32.6839 868.441 32.1213 867.879C31.5587 867.316 30.7956 867 30 867C29.2044 867 28.4413 867.316 27.8787 867.879C27.3161 868.441 27 869.204 27 870V870Z" stroke="#19191B"/>
<path d="M32 928L28 932L32 928Z" stroke="#19191B"/>
<path d="M36 984L24 996L36 984Z" stroke="#19191B"/>
<path d="M32 1048L28 1052L32 1048Z" stroke="#19191B"/>
<path d="M96 744L84 756L96 744Z" stroke="#19191B"/>
<path d="M85 810C85 811.326 85.5268 812.598 86.4645 813.536C87.4021 814.473 88.6739 815 90 815C91.3261 815 92.5979 814.473 93.5355 813.536C94.4732 812.598 95 811.326 95 810C95 808.674 94.4732 807.402 93.5355 806.464C92.5979 805.527 91.3261 805 90 805C88.6739 805 87.4021 805.527 86.4645 806.464C85.5268 807.402 85 808.674 85 810V810Z" stroke="#19191B"/>
<path d="M85 870C85 871.326 85.5268 872.598 86.4645 873.536C87.4021 874.473 88.6739 875 90 875C91.3261 875 92.5979 874.473 93.5355 873.536C94.4732 872.598 95 871.326 95 870C95 868.674 94.4732 867.402 93.5355 866.464C92.5979 865.527 91.3261 865 90 865C88.6739 865 87.4021 865.527 86.4645 866.464C85.5268 867.402 85 868.674 85 870V870Z" stroke="#19191B"/>
<path d="M92 928L88 932L92 928Z" stroke="#19191B"/>
<path d="M85 990C85 991.326 85.5268 992.598 86.4645 993.536C87.4021 994.473 88.6739 995 90 995C91.3261 995 92.5979 994.473 93.5355 993.536C94.4732 992.598 95 991.326 95 990C95 988.674 94.4732 987.402 93.5355 986.464C92.5979 985.527 91.3261 985 90 985C88.6739 985 87.4021 985.527 86.4645 986.464C85.5268 987.402 85 988.674 85 990V990Z" stroke="#19191B"/>
<path d="M120 1020L60 1080L120 1020Z" stroke="#19191B" stroke-width="3"/>
<path d="M147 750C147 750.796 147.316 751.559 147.879 752.121C148.441 752.684 149.204 753 150 753C150.796 753 151.559 752.684 152.121 752.121C152.684 751.559 153 750.796 153 750C153 749.204 152.684 748.441 152.121 747.879C151.559 747.316 150.796 747 150 747C149.204 747 148.441 747.316 147.879 747.879C147.316 748.441 147 749.204 147 750V750Z" stroke="#19191B"/>
<path d="M180 780L120 840L180 780Z" stroke="#19191B" stroke-width="3"/>
<path d="M145 870C145 871.326 145.527 872.598 146.464 873.536C147.402 874.473 148.674 875 150 875C151.326 875 152.598 874.473 153.536 873.536C154.473 872.598 155 871.326 155 870C155 868.674 154.473 867.402 153.536 866.464C152.598 865.527 151.326 865 150 865C148.674 865 147.402 865.527 146.464 866.464C145.527 867.402 145 868.674 145 870V870Z" stroke="#19191B"/>
<path d="M156 924L144 936L156 924Z" stroke="#19191B"/>
<path d="M145 990C145 991.326 145.527 992.598 146.464 993.536C147.402 994.473 148.674 995 150 995C151.326 995 152.598 994.473 153.536 993.536C154.473 992.598 155 991.326 155 990C155 988.674 154.473 987.402 153.536 986.464C152.598 985.527 151.326 985 150 985C148.674 985 147.402 985.527 146.464 986.464C145.527 987.402 145 988.674 145 990V990Z" stroke="#19191B"/>
<path d="M145 1050C145 1051.33 145.527 1052.6 146.464 1053.54C147.402 1054.47 148.674 1055 150 1055C151.326 1055 152.598 1054.47 153.536 1053.54C154.473 1052.6 155 1051.33 155 1050C155 1048.67 154.473 1047.4 153.536 1046.46C152.598 1045.53 151.326 1045 150 1045C148.674 1045 147.402 1045.53 146.464 1046.46C145.527 1047.4 145 1048.67 145 1050V1050Z" stroke="#19191B"/>
<path d="M216 744L204 756L216 744Z" stroke="#19191B"/>
<path d="M240 780L180 840L240 780Z" stroke="#19191B" stroke-width="3"/>
<path d="M207 870C207 870.796 207.316 871.559 207.879 872.121C208.441 872.684 209.204 873 210 873C210.796 873 211.559 872.684 212.121 872.121C212.684 871.559 213 870.796 213 870C213 869.204 212.684 868.441 212.121 867.879C211.559 867.316 210.796 867 210 867C209.204 867 208.441 867.316 207.879 867.879C207.316 868.441 207 869.204 207 870V870Z" stroke="#19191B"/>
<path d="M216 924L204 936L216 924Z" stroke="#19191B"/>
<path d="M216 984L204 996L216 984Z" stroke="#19191B"/>
<path d="M209 1050C209 1050.27 209.105 1050.52 209.293 1050.71C209.48 1050.89 209.735 1051 210 1051C210.265 1051 210.52 1050.89 210.707 1050.71C210.895 1050.52 211 1050.27 211 1050C211 1049.73 210.895 1049.48 210.707 1049.29C210.52 1049.11 210.265 1049 210 1049C209.735 1049 209.48 1049.11 209.293 1049.29C209.105 1049.48 209 1049.73 209 1050V1050Z" stroke="#19191B"/>
<path d="M265 750C265 751.326 265.527 752.598 266.464 753.536C267.402 754.473 268.674 755 270 755C271.326 755 272.598 754.473 273.536 753.536C274.473 752.598 275 751.326 275 750C275 748.674 274.473 747.402 273.536 746.464C272.598 745.527 271.326 745 270 745C268.674 745 267.402 745.527 266.464 746.464C265.527 747.402 265 748.674 265 750V750Z" stroke="#19191B"/>
<path d="M267 810C267 810.796 267.316 811.559 267.879 812.121C268.441 812.684 269.204 813 270 813C270.796 813 271.559 812.684 272.121 812.121C272.684 811.559 273 810.796 273 810C273 809.204 272.684 808.441 272.121 807.879C271.559 807.316 270.796 807 270 807C269.204 807 268.441 807.316 267.879 807.879C267.316 808.441 267 809.204 267 810V810Z" stroke="#19191B"/>
<path d="M276 864L264 876L276 864Z" stroke="#19191B"/>
<path d="M265 930C265 931.326 265.527 932.598 266.464 933.536C267.402 934.473 268.674 935 270 935C271.326 935 272.598 934.473 273.536 933.536C274.473 932.598 275 931.326 275 930C275 928.674 274.473 927.402 273.536 926.464C272.598 925.527 271.326 925 270 925C268.674 925 267.402 925.527 266.464 926.464C265.527 927.402 265 928.674 265 930V930Z" stroke="#19191B"/>
<path d="M272 988L268 992L272 988Z" stroke="#19191B"/>
<path d="M276 1044L264 1056L276 1044Z" stroke="#19191B"/>
<path d="M325 750C325 751.326 325.527 752.598 326.464 753.536C327.402 754.473 328.674 755 330 755C331.326 755 332.598 754.473 333.536 753.536C334.473 752.598 335 751.326 335 750C335 748.674 334.473 747.402 333.536 746.464C332.598 745.527 331.326 745 330 745C328.674 745 327.402 745.527 326.464 746.464C325.527 747.402 325 748.674 325 750V750Z" stroke="#19191B"/>
<path d="M336 804L324 816L336 804Z" stroke="#19191B"/>
<path d="M360 840L300 900L360 840Z" stroke="#19191B" stroke-width="3"/>
<path d="M329 930C329 930.265 329.105 930.52 329.293 930.707C329.48 930.895 329.735 931 330 931C330.265 931 330.52 930.895 330.707 930.707C330.895 930.52 331 930.265 331 930C331 929.735 330.895 929.48 330.707 929.293C330.52 929.105 330.265 929 330 929C329.735 929 329.48 929.105 329.293 929.293C329.105 929.48 329 929.735 329 930V930Z" stroke="#19191B"/>
<path d="M325 990C325 991.326 325.527 992.598 326.464 993.536C327.402 994.473 328.674 995 330 995C331.326 995 332.598 994.473 333.536 993.536C334.473 992.598 335 991.326 335 990C335 988.674 334.473 987.402 333.536 986.464C332.598 985.527 331.326 985 330 985C328.674 985 327.402 985.527 326.464 986.464C325.527 987.402 325 988.674 325 990V990Z" stroke="#19191B"/>
<path d="M327 1050C327 1050.8 327.316 1051.56 327.879 1052.12C328.441 1052.68 329.204 1053 330 1053C330.796 1053 331.559 1052.68 332.121 1052.12C332.684 1051.56 333 1050.8 333 1050C333 1049.2 332.684 1048.44 332.121 1047.88C331.559 1047.32 330.796 1047 330 1047C329.204 1047 328.441 1047.32 327.879 1047.88C327.316 1048.44 327 1049.2 327 1050V1050Z" stroke="#19191B"/>
<path d="M385 750C385 751.326 385.527 752.598 386.464 753.536C387.402 754.473 388.674 755 390 755C391.326 755 392.598 754.473 393.536 753.536C394.473 752.598 395 751.326 395 750C395 748.674 394.473 747.402 393.536 746.464C392.598 745.527 391.326 745 390 745C388.674 745 387.402 745.527 386.464 746.464C385.527 747.402 385 748.674 385 750V750Z" stroke="#19191B"/>
<path d="M387 810C387 810.796 387.316 811.559 387.879 812.121C388.441 812.684 389.204 813 390 813C390.796 813 391.559 812.684 392.121 812.121C392.684 811.559 393 810.796 393 810C393 809.204 392.684 808.441 392.121 807.879C391.559 807.316 390.796 807 390 807C389.204 807 388.441 807.316 387.879 807.879C387.316 808.441 387 809.204 387 810V810Z" stroke="#19191B"/>
<path d="M389 870C389 870.265 389.105 870.52 389.293 870.707C389.48 870.895 389.735 871 390 871C390.265 871 390.52 870.895 390.707 870.707C390.895 870.52 391 870.265 391 870C391 869.735 390.895 869.48 390.707 869.293C390.52 869.105 390.265 869 390 869C389.735 869 389.48 869.105 389.293 869.293C389.105 869.48 389 869.735 389 870V870Z" stroke="#19191B"/>
<path d="M385 930C385 931.326 385.527 932.598 386.464 933.536C387.402 934.473 388.674 935 390 935C391.326 935 392.598 934.473 393.536 933.536C394.473 932.598 395 931.326 395 930C395 928.674 394.473 927.402 393.536 926.464C392.598 925.527 391.326 925 390 925C388.674 925 387.402 925.527 386.464 926.464C385.527 927.402 385 928.674 385 930V930Z" stroke="#19191B"/>
<path d="M385 990C385 991.326 385.527 992.598 386.464 993.536C387.402 994.473 388.674 995 390 995C391.326 995 392.598 994.473 393.536 993.536C394.473 992.598 395 991.326 395 990C395 988.674 394.473 987.402 393.536 986.464C392.598 985.527 391.326 985 390 985C388.674 985 387.402 985.527 386.464 986.464C385.527 987.402 385 988.674 385 990V990Z" stroke="#19191B"/>
<path d="M420 1020L360 1080L420 1020Z" stroke="#19191B" stroke-width="3"/>
<path d="M447 750C447 750.796 447.316 751.559 447.879 752.121C448.441 752.684 449.204 753 450 753C450.796 753 451.559 752.684 452.121 752.121C452.684 751.559 453 750.796 453 750C453 749.204 452.684 748.441 452.121 747.879C451.559 747.316 450.796 747 450 747C449.204 747 448.441 747.316 447.879 747.879C447.316 748.441 447 749.204 447 750V750Z" stroke="#19191B"/>
<path d="M445 810C445 811.326 445.527 812.598 446.464 813.536C447.402 814.473 448.674 815 450 815C451.326 815 452.598 814.473 453.536 813.536C454.473 812.598 455 811.326 455 810C455 808.674 454.473 807.402 453.536 806.464C452.598 805.527 451.326 805 450 805C448.674 805 447.402 805.527 446.464 806.464C445.527 807.402 445 808.674 445 810V810Z" stroke="#19191B"/>
<path d="M447 870C447 870.796 447.316 871.559 447.879 872.121C448.441 872.684 449.204 873 450 873C450.796 873 451.559 872.684 452.121 872.121C452.684 871.559 453 870.796 453 870C453 869.204 452.684 868.441 452.121 867.879C451.559 867.316 450.796 867 450 867C449.204 867 448.441 867.316 447.879 867.879C447.316 868.441 447 869.204 447 870V870Z" stroke="#19191B"/>
<path d="M449 930C449 930.265 449.105 930.52 449.293 930.707C449.48 930.895 449.735 931 450 931C450.265 931 450.52 930.895 450.707 930.707C450.895 930.52 451 930.265 451 930C451 929.735 450.895 929.48 450.707 929.293C450.52 929.105 450.265 929 450 929C449.735 929 449.48 929.105 449.293 929.293C449.105 929.48 449 929.735 449 930V930Z" stroke="#19191B"/>
<path d="M456 984L444 996L456 984Z" stroke="#19191B"/>
<path d="M452 1048L448 1052L452 1048Z" stroke="#19191B"/>
<path d="M507 750C507 750.796 507.316 751.559 507.879 752.121C508.441 752.684 509.204 753 510 753C510.796 753 511.559 752.684 512.121 752.121C512.684 751.559 513 750.796 513 750C513 749.204 512.684 748.441 512.121 747.879C511.559 747.316 510.796 747 510 747C509.204 747 508.441 747.316 507.879 747.879C507.316 748.441 507 749.204 507 750V750Z" stroke="#19191B"/>
<path d="M512 808L508 812L512 808Z" stroke="#19191B"/>
<path d="M507 870C507 870.796 507.316 871.559 507.879 872.121C508.441 872.684 509.204 873 510 873C510.796 873 511.559 872.684 512.121 872.121C512.684 871.559 513 870.796 513 870C513 869.204 512.684 868.441 512.121 867.879C511.559 867.316 510.796 867 510 867C509.204 867 508.441 867.316 507.879 867.879C507.316 868.441 507 869.204 507 870V870Z" stroke="#19191B"/>
<path d="M505 930C505 931.326 505.527 932.598 506.464 933.536C507.402 934.473 508.674 935 510 935C511.326 935 512.598 934.473 513.536 933.536C514.473 932.598 515 931.326 515 930C515 928.674 514.473 927.402 513.536 926.464C512.598 925.527 511.326 925 510 925C508.674 925 507.402 925.527 506.464 926.464C505.527 927.402 505 928.674 505 930V930Z" stroke="#19191B"/>
<path d="M505 990C505 991.326 505.527 992.598 506.464 993.536C507.402 994.473 508.674 995 510 995C511.326 995 512.598 994.473 513.536 993.536C514.473 992.598 515 991.326 515 990C515 988.674 514.473 987.402 513.536 986.464C512.598 985.527 511.326 985 510 985C508.674 985 507.402 985.527 506.464 986.464C505.527 987.402 505 988.674 505 990V990Z" stroke="#19191B"/>
<path d="M507 1050C507 1050.8 507.316 1051.56 507.879 1052.12C508.441 1052.68 509.204 1053 510 1053C510.796 1053 511.559 1052.68 512.121 1052.12C512.684 1051.56 513 1050.8 513 1050C513 1049.2 512.684 1048.44 512.121 1047.88C511.559 1047.32 510.796 1047 510 1047C509.204 1047 508.441 1047.32 507.879 1047.88C507.316 1048.44 507 1049.2 507 1050V1050Z" stroke="#19191B"/>
<path d="M572 748L568 752L572 748Z" stroke="#19191B"/>
<path d="M572 808L568 812L572 808Z" stroke="#19191B"/>
<path d="M565 870C565 871.326 565.527 872.598 566.464 873.536C567.402 874.473 568.674 875 570 875C571.326 875 572.598 874.473 573.536 873.536C574.473 872.598 575 871.326 575 870C575 868.674 574.473 867.402 573.536 866.464C572.598 865.527 571.326 865 570 865C568.674 865 567.402 865.527 566.464 866.464C565.527 867.402 565 868.674 565 870V870Z" stroke="#19191B"/>
<path d="M567 930C567 930.796 567.316 931.559 567.879 932.121C568.441 932.684 569.204 933 570 933C570.796 933 571.559 932.684 572.121 932.121C572.684 931.559 573 930.796 573 930C573 929.204 572.684 928.441 572.121 927.879C571.559 927.316 570.796 927 570 927C569.204 927 568.441 927.316 567.879 927.879C567.316 928.441 567 929.204 567 930V930Z" stroke="#19191B"/>
<path d="M565 990C565 991.326 565.527 992.598 566.464 993.536C567.402 994.473 568.674 995 570 995C571.326 995 572.598 994.473 573.536 993.536C574.473 992.598 575 991.326 575 990C575 988.674 574.473 987.402 573.536 986.464C572.598 985.527 571.326 985 570 985C568.674 985 567.402 985.527 566.464 986.464C565.527 987.402 565 988.674 565 990V990Z" stroke="#19191B"/>
<path d="M567 1050C567 1050.8 567.316 1051.56 567.879 1052.12C568.441 1052.68 569.204 1053 570 1053C570.796 1053 571.559 1052.68 572.121 1052.12C572.684 1051.56 573 1050.8 573 1050C573 1049.2 572.684 1048.44 572.121 1047.88C571.559 1047.32 570.796 1047 570 1047C569.204 1047 568.441 1047.32 567.879 1047.88C567.316 1048.44 567 1049.2 567 1050V1050Z" stroke="#19191B"/>
<path d="M636 744L624 756L636 744Z" stroke="#19191B"/>
<path d="M625 810C625 811.326 625.527 812.598 626.464 813.536C627.402 814.473 628.674 815 630 815C631.326 815 632.598 814.473 633.536 813.536C634.473 812.598 635 811.326 635 810C635 808.674 634.473 807.402 633.536 806.464C632.598 805.527 631.326 805 630 805C628.674 805 627.402 805.527 626.464 806.464C625.527 807.402 625 808.674 625 810V810Z" stroke="#19191B"/>
<path d="M632 868L628 872L632 868Z" stroke="#19191B"/>
<path d="M629 930C629 930.265 629.105 930.52 629.293 930.707C629.48 930.895 629.735 931 630 931C630.265 931 630.52 930.895 630.707 930.707C630.895 930.52 631 930.265 631 930C631 929.735 630.895 929.48 630.707 929.293C630.52 929.105 630.265 929 630 929C629.735 929 629.48 929.105 629.293 929.293C629.105 929.48 629 929.735 629 930V930Z" stroke="#19191B"/>
<path d="M632 988L628 992L632 988Z" stroke="#19191B"/>
<path d="M636 1044L624 1056L636 1044Z" stroke="#19191B"/>
<path d="M685 750C685 751.326 685.527 752.598 686.464 753.536C687.402 754.473 688.674 755 690 755C691.326 755 692.598 754.473 693.536 753.536C694.473 752.598 695 751.326 695 750C695 748.674 694.473 747.402 693.536 746.464C692.598 745.527 691.326 745 690 745C688.674 745 687.402 745.527 686.464 746.464C685.527 747.402 685 748.674 685 750V750Z" stroke="#19191B"/>
<path d="M696 804L684 816L696 804Z" stroke="#19191B"/>
<path d="M696 864L684 876L696 864Z" stroke="#19191B"/>
<path d="M685 930C685 931.326 685.527 932.598 686.464 933.536C687.402 934.473 688.674 935 690 935C691.326 935 692.598 934.473 693.536 933.536C694.473 932.598 695 931.326 695 930C695 928.674 694.473 927.402 693.536 926.464C692.598 925.527 691.326 925 690 925C688.674 925 687.402 925.527 686.464 926.464C685.527 927.402 685 928.674 685 930V930Z" stroke="#19191B"/>
<path d="M687 990C687 990.796 687.316 991.559 687.879 992.121C688.441 992.684 689.204 993 690 993C690.796 993 691.559 992.684 692.121 992.121C692.684 991.559 693 990.796 693 990C693 989.204 692.684 988.441 692.121 987.879C691.559 987.316 690.796 987 690 987C689.204 987 688.441 987.316 687.879 987.879C687.316 988.441 687 989.204 687 990V990Z" stroke="#19191B"/>
<path d="M687 1050C687 1050.8 687.316 1051.56 687.879 1052.12C688.441 1052.68 689.204 1053 690 1053C690.796 1053 691.559 1052.68 692.121 1052.12C692.684 1051.56 693 1050.8 693 1050C693 1049.2 692.684 1048.44 692.121 1047.88C691.559 1047.32 690.796 1047 690 1047C689.204 1047 688.441 1047.32 687.879 1047.88C687.316 1048.44 687 1049.2 687 1050V1050Z" stroke="#19191B"/>
<path d="M752 28L748 32L752 28Z" stroke="#19191B"/>
<path d="M745 90C745 91.3261 745.527 92.5979 746.464 93.5355C747.402 94.4732 748.674 95 750 95C751.326 95 752.598 94.4732 753.536 93.5355C754.473 92.5979 755 91.3261 755 90C755 88.6739 754.473 87.4021 753.536 86.4645C752.598 85.5268 751.326 85 750 85C748.674 85 747.402 85.5268 746.464 86.4645C745.527 87.4021 745 88.6739 745 90V90Z" stroke="#19191B"/>
<path d="M747 150C747 150.796 747.316 151.559 747.879 152.121C748.441 152.684 749.204 153 750 153C750.796 153 751.559 152.684 752.121 152.121C752.684 151.559 753 150.796 753 150C753 149.204 752.684 148.441 752.121 147.879C751.559 147.316 750.796 147 750 147C749.204 147 748.441 147.316 747.879 147.879C747.316 148.441 747 149.204 747 150V150Z" stroke="#19191B"/>
<path d="M752 208L748 212L752 208Z" stroke="#19191B"/>
<path d="M756 264L744 276L756 264Z" stroke="#19191B"/>
<path d="M752 328L748 332L752 328Z" stroke="#19191B"/>
<path d="M745 390C745 391.326 745.527 392.598 746.464 393.536C747.402 394.473 748.674 395 750 395C751.326 395 752.598 394.473 753.536 393.536C754.473 392.598 755 391.326 755 390C755 388.674 754.473 387.402 753.536 386.464C752.598 385.527 751.326 385 750 385C748.674 385 747.402 385.527 746.464 386.464C745.527 387.402 745 388.674 745 390V390Z" stroke="#19191B"/>
<path d="M747 450C747 450.796 747.316 451.559 747.879 452.121C748.441 452.684 749.204 453 750 453C750.796 453 751.559 452.684 752.121 452.121C752.684 451.559 753 450.796 753 450C753 449.204 752.684 448.441 752.121 447.879C751.559 447.316 750.796 447 750 447C749.204 447 748.441 447.316 747.879 447.879C747.316 448.441 747 449.204 747 450V450Z" stroke="#19191B"/>
<path d="M749 510C749 510.265 749.105 510.52 749.293 510.707C749.48 510.895 749.735 511 750 511C750.265 511 750.52 510.895 750.707 510.707C750.895 510.52 751 510.265 751 510C751 509.735 750.895 509.48 750.707 509.293C750.52 509.105 750.265 509 750 509C749.735 509 749.48 509.105 749.293 509.293C749.105 509.48 749 509.735 749 510V510Z" stroke="#19191B"/>
<path d="M745 570C745 571.326 745.527 572.598 746.464 573.536C747.402 574.473 748.674 575 750 575C751.326 575 752.598 574.473 753.536 573.536C754.473 572.598 755 571.326 755 570C755 568.674 754.473 567.402 753.536 566.464C752.598 565.527 751.326 565 750 565C748.674 565 747.402 565.527 746.464 566.464C745.527 567.402 745 568.674 745 570V570Z" stroke="#19191B"/>
<path d="M752 628L748 632L752 628Z" stroke="#19191B"/>
<path d="M745 690C745 691.326 745.527 692.598 746.464 693.536C747.402 694.473 748.674 695 750 695C751.326 695 752.598 694.473 753.536 693.536C754.473 692.598 755 691.326 755 690C755 688.674 754.473 687.402 753.536 686.464C752.598 685.527 751.326 685 750 685C748.674 685 747.402 685.527 746.464 686.464C745.527 687.402 745 688.674 745 690V690Z" stroke="#19191B"/>
<path d="M816 24L804 36L816 24Z" stroke="#19191B"/>
<path d="M805 90C805 91.3261 805.527 92.5979 806.464 93.5355C807.402 94.4732 808.674 95 810 95C811.326 95 812.598 94.4732 813.536 93.5355C814.473 92.5979 815 91.3261 815 90C815 88.6739 814.473 87.4021 813.536 86.4645C812.598 85.5268 811.326 85 810 85C808.674 85 807.402 85.5268 806.464 86.4645C805.527 87.4021 805 88.6739 805 90V90Z" stroke="#19191B"/>
<path d="M805 150C805 151.326 805.527 152.598 806.464 153.536C807.402 154.473 808.674 155 810 155C811.326 155 812.598 154.473 813.536 153.536C814.473 152.598 815 151.326 815 150C815 148.674 814.473 147.402 813.536 146.464C812.598 145.527 811.326 145 810 145C808.674 145 807.402 145.527 806.464 146.464C805.527 147.402 805 148.674 805 150V150Z" stroke="#19191B"/>
<path d="M812 208L808 212L812 208Z" stroke="#19191B"/>
<path d="M805 270C805 271.326 805.527 272.598 806.464 273.536C807.402 274.473 808.674 275 810 275C811.326 275 812.598 274.473 813.536 273.536C814.473 272.598 815 271.326 815 270C815 268.674 814.473 267.402 813.536 266.464C812.598 265.527 811.326 265 810 265C808.674 265 807.402 265.527 806.464 266.464C805.527 267.402 805 268.674 805 270V270Z" stroke="#19191B"/>
<path d="M840 300L780 360L840 300Z" stroke="#19191B" stroke-width="3"/>
<path d="M805 390C805 391.326 805.527 392.598 806.464 393.536C807.402 394.473 808.674 395 810 395C811.326 395 812.598 394.473 813.536 393.536C814.473 392.598 815 391.326 815 390C815 388.674 814.473 387.402 813.536 386.464C812.598 385.527 811.326 385 810 385C808.674 385 807.402 385.527 806.464 386.464C805.527 387.402 805 388.674 805 390V390Z" stroke="#19191B"/>
<path d="M807 450C807 450.796 807.316 451.559 807.879 452.121C808.441 452.684 809.204 453 810 453C810.796 453 811.559 452.684 812.121 452.121C812.684 451.559 813 450.796 813 450C813 449.204 812.684 448.441 812.121 447.879C811.559 447.316 810.796 447 810 447C809.204 447 808.441 447.316 807.879 447.879C807.316 448.441 807 449.204 807 450V450Z" stroke="#19191B"/>
<path d="M812 508L808 512L812 508Z" stroke="#19191B"/>
<path d="M840 540L780 600L840 540Z" stroke="#19191B" stroke-width="3"/>
<path d="M812 628L808 632L812 628Z" stroke="#19191B"/>
<path d="M840 660L780 720L840 660Z" stroke="#19191B" stroke-width="3"/>
<path d="M867 30C867 30.7956 867.316 31.5587 867.879 32.1213C868.441 32.6839 869.204 33 870 33C870.796 33 871.559 32.6839 872.121 32.1213C872.684 31.5587 873 30.7956 873 30C873 29.2044 872.684 28.4413 872.121 27.8787C871.559 27.3161 870.796 27 870 27C869.204 27 868.441 27.3161 867.879 27.8787C867.316 28.4413 867 29.2044 867 30V30Z" stroke="#19191B"/>
<path d="M900 60L840 120L900 60Z" stroke="#19191B" stroke-width="3"/>
<path d="M865 150C865 151.326 865.527 152.598 866.464 153.536C867.402 154.473 868.674 155 870 155C871.326 155 872.598 154.473 873.536 153.536C874.473 152.598 875 151.326 875 150C875 148.674 874.473 147.402 873.536 146.464C872.598 145.527 871.326 145 870 145C868.674 145 867.402 145.527 866.464 146.464C865.527 147.402 865 148.674 865 150V150Z" stroke="#19191B"/>
<path d="M876 204L864 216L876 204Z" stroke="#19191B"/>
<path d="M865 270C865 271.326 865.527 272.598 866.464 273.536C867.402 274.473 868.674 275 870 275C871.326 275 872.598 274.473 873.536 273.536C874.473 272.598 875 271.326 875 270C875 268.674 874.473 267.402 873.536 266.464C872.598 265.527 871.326 265 870 265C868.674 265 867.402 265.527 866.464 266.464C865.527 267.402 865 268.674 865 270V270Z" stroke="#19191B"/>
<path d="M865 330C865 331.326 865.527 332.598 866.464 333.536C867.402 334.473 868.674 335 870 335C871.326 335 872.598 334.473 873.536 333.536C874.473 332.598 875 331.326 875 330C875 328.674 874.473 327.402 873.536 326.464C872.598 325.527 871.326 325 870 325C868.674 325 867.402 325.527 866.464 326.464C865.527 327.402 865 328.674 865 330V330Z" stroke="#19191B"/>
<path d="M876 384L864 396L876 384Z" stroke="#19191B"/>
<path d="M872 448L868 452L872 448Z" stroke="#19191B"/>
<path d="M865 510C865 511.326 865.527 512.598 866.464 513.536C867.402 514.473 868.674 515 870 515C871.326 515 872.598 514.473 873.536 513.536C874.473 512.598 875 511.326 875 510C875 508.674 874.473 507.402 873.536 506.464C872.598 505.527 871.326 505 870 505C868.674 505 867.402 505.527 866.464 506.464C865.527 507.402 865 508.674 865 510V510Z" stroke="#19191B"/>
<path d="M876 564L864 576L876 564Z" stroke="#19191B"/>
<path d="M865 630C865 631.326 865.527 632.598 866.464 633.536C867.402 634.473 868.674 635 870 635C871.326 635 872.598 634.473 873.536 633.536C874.473 632.598 875 631.326 875 630C875 628.674 874.473 627.402 873.536 626.464C872.598 625.527 871.326 625 870 625C868.674 625 867.402 625.527 866.464 626.464C865.527 627.402 865 628.674 865 630V630Z" stroke="#19191B"/>
<path d="M876 684L864 696L876 684Z" stroke="#19191B"/>
<path d="M936 24L924 36L936 24Z" stroke="#19191B"/>
<path d="M960 60L900 120L960 60Z" stroke="#19191B" stroke-width="3"/>
<path d="M927 150C927 150.796 927.316 151.559 927.879 152.121C928.441 152.684 929.204 153 930 153C930.796 153 931.559 152.684 932.121 152.121C932.684 151.559 933 150.796 933 150C933 149.204 932.684 148.441 932.121 147.879C931.559 147.316 930.796 147 930 147C929.204 147 928.441 147.316 927.879 147.879C927.316 148.441 927 149.204 927 150V150Z" stroke="#19191B"/>
<path d="M936 204L924 216L936 204Z" stroke="#19191B"/>
<path d="M936 264L924 276L936 264Z" stroke="#19191B"/>
<path d="M929 330C929 330.265 929.105 330.52 929.293 330.707C929.48 330.895 929.735 331 930 331C930.265 331 930.52 330.895 930.707 330.707C930.895 330.52 931 330.265 931 330C931 329.735 930.895 329.48 930.707 329.293C930.52 329.105 930.265 329 930 329C929.735 329 929.48 329.105 929.293 329.293C929.105 329.48 929 329.735 929 330V330Z" stroke="#19191B"/>
<path d="M936 384L924 396L936 384Z" stroke="#19191B"/>
<path d="M925 450C925 451.326 925.527 452.598 926.464 453.536C927.402 454.473 928.674 455 930 455C931.326 455 932.598 454.473 933.536 453.536C934.473 452.598 935 451.326 935 450C935 448.674 934.473 447.402 933.536 446.464C932.598 445.527 931.326 445 930 445C928.674 445 927.402 445.527 926.464 446.464C925.527 447.402 925 448.674 925 450V450Z" stroke="#19191B"/>
<path d="M936 504L924 516L936 504Z" stroke="#19191B"/>
<path d="M925 570C925 571.326 925.527 572.598 926.464 573.536C927.402 574.473 928.674 575 930 575C931.326 575 932.598 574.473 933.536 573.536C934.473 572.598 935 571.326 935 570C935 568.674 934.473 567.402 933.536 566.464C932.598 565.527 931.326 565 930 565C928.674 565 927.402 565.527 926.464 566.464C925.527 567.402 925 568.674 925 570V570Z" stroke="#19191B"/>
<path d="M925 630C925 631.326 925.527 632.598 926.464 633.536C927.402 634.473 928.674 635 930 635C931.326 635 932.598 634.473 933.536 633.536C934.473 632.598 935 631.326 935 630C935 628.674 934.473 627.402 933.536 626.464C932.598 625.527 931.326 625 930 625C928.674 625 927.402 625.527 926.464 626.464C925.527 627.402 925 628.674 925 630V630Z" stroke="#19191B"/>
<path d="M936 684L924 696L936 684Z" stroke="#19191B"/>
<path d="M985 30C985 31.3261 985.527 32.5979 986.464 33.5355C987.402 34.4732 988.674 35 990 35C991.326 35 992.598 34.4732 993.536 33.5355C994.473 32.5979 995 31.3261 995 30C995 28.6739 994.473 27.4021 993.536 26.4645C992.598 25.5268 991.326 25 990 25C988.674 25 987.402 25.5268 986.464 26.4645C985.527 27.4021 985 28.6739 985 30V30Z" stroke="#19191B"/>
<path d="M987 90C987 90.7956 987.316 91.5587 987.879 92.1213C988.441 92.6839 989.204 93 990 93C990.796 93 991.559 92.6839 992.121 92.1213C992.684 91.5587 993 90.7956 993 90C993 89.2044 992.684 88.4413 992.121 87.8787C991.559 87.3161 990.796 87 990 87C989.204 87 988.441 87.3161 987.879 87.8787C987.316 88.4413 987 89.2044 987 90V90Z" stroke="#19191B"/>
<path d="M996 144L984 156L996 144Z" stroke="#19191B"/>
<path d="M985 210C985 211.326 985.527 212.598 986.464 213.536C987.402 214.473 988.674 215 990 215C991.326 215 992.598 214.473 993.536 213.536C994.473 212.598 995 211.326 995 210C995 208.674 994.473 207.402 993.536 206.464C992.598 205.527 991.326 205 990 205C988.674 205 987.402 205.527 986.464 206.464C985.527 207.402 985 208.674 985 210V210Z" stroke="#19191B"/>
<path d="M992 268L988 272L992 268Z" stroke="#19191B"/>
<path d="M996 324L984 336L996 324Z" stroke="#19191B"/>
<path d="M996 384L984 396L996 384Z" stroke="#19191B"/>
<path d="M996 444L984 456L996 444Z" stroke="#19191B"/>
<path d="M987 510C987 510.796 987.316 511.559 987.879 512.121C988.441 512.684 989.204 513 990 513C990.796 513 991.559 512.684 992.121 512.121C992.684 511.559 993 510.796 993 510C993 509.204 992.684 508.441 992.121 507.879C991.559 507.316 990.796 507 990 507C989.204 507 988.441 507.316 987.879 507.879C987.316 508.441 987 509.204 987 510V510Z" stroke="#19191B"/>
<path d="M992 568L988 572L992 568Z" stroke="#19191B"/>
<path d="M985 630C985 631.326 985.527 632.598 986.464 633.536C987.402 634.473 988.674 635 990 635C991.326 635 992.598 634.473 993.536 633.536C994.473 632.598 995 631.326 995 630C995 628.674 994.473 627.402 993.536 626.464C992.598 625.527 991.326 625 990 625C988.674 625 987.402 625.527 986.464 626.464C985.527 627.402 985 628.674 985 630V630Z" stroke="#19191B"/>
<path d="M985 690C985 691.326 985.527 692.598 986.464 693.536C987.402 694.473 988.674 695 990 695C991.326 695 992.598 694.473 993.536 693.536C994.473 692.598 995 691.326 995 690C995 688.674 994.473 687.402 993.536 686.464C992.598 685.527 991.326 685 990 685C988.674 685 987.402 685.527 986.464 686.464C985.527 687.402 985 688.674 985 690V690Z" stroke="#19191B"/>
<path d="M1045 30C1045 31.3261 1045.53 32.5979 1046.46 33.5355C1047.4 34.4732 1048.67 35 1050 35C1051.33 35 1052.6 34.4732 1053.54 33.5355C1054.47 32.5979 1055 31.3261 1055 30C1055 28.6739 1054.47 27.4021 1053.54 26.4645C1052.6 25.5268 1051.33 25 1050 25C1048.67 25 1047.4 25.5268 1046.46 26.4645C1045.53 27.4021 1045 28.6739 1045 30V30Z" stroke="#19191B"/>
<path d="M1056 84L1044 96L1056 84Z" stroke="#19191B"/>
<path d="M1080 120L1020 180L1080 120Z" stroke="#19191B" stroke-width="3"/>
<path d="M1049 210C1049 210.265 1049.11 210.52 1049.29 210.707C1049.48 210.895 1049.73 211 1050 211C1050.27 211 1050.52 210.895 1050.71 210.707C1050.89 210.52 1051 210.265 1051 210C1051 209.735 1050.89 209.48 1050.71 209.293C1050.52 209.105 1050.27 209 1050 209C1049.73 209 1049.48 209.105 1049.29 209.293C1049.11 209.48 1049 209.735 1049 210V210Z" stroke="#19191B"/>
<path d="M1045 270C1045 271.326 1045.53 272.598 1046.46 273.536C1047.4 274.473 1048.67 275 1050 275C1051.33 275 1052.6 274.473 1053.54 273.536C1054.47 272.598 1055 271.326 1055 270C1055 268.674 1054.47 267.402 1053.54 266.464C1052.6 265.527 1051.33 265 1050 265C1048.67 265 1047.4 265.527 1046.46 266.464C1045.53 267.402 1045 268.674 1045 270V270Z" stroke="#19191B"/>
<path d="M1047 330C1047 330.796 1047.32 331.559 1047.88 332.121C1048.44 332.684 1049.2 333 1050 333C1050.8 333 1051.56 332.684 1052.12 332.121C1052.68 331.559 1053 330.796 1053 330C1053 329.204 1052.68 328.441 1052.12 327.879C1051.56 327.316 1050.8 327 1050 327C1049.2 327 1048.44 327.316 1047.88 327.879C1047.32 328.441 1047 329.204 1047 330V330Z" stroke="#19191B"/>
<path d="M1045 390C1045 391.326 1045.53 392.598 1046.46 393.536C1047.4 394.473 1048.67 395 1050 395C1051.33 395 1052.6 394.473 1053.54 393.536C1054.47 392.598 1055 391.326 1055 390C1055 388.674 1054.47 387.402 1053.54 386.464C1052.6 385.527 1051.33 385 1050 385C1048.67 385 1047.4 385.527 1046.46 386.464C1045.53 387.402 1045 388.674 1045 390V390Z" stroke="#19191B"/>
<path d="M1052 448L1048 452L1052 448Z" stroke="#19191B"/>
<path d="M1045 510C1045 511.326 1045.53 512.598 1046.46 513.536C1047.4 514.473 1048.67 515 1050 515C1051.33 515 1052.6 514.473 1053.54 513.536C1054.47 512.598 1055 511.326 1055 510C1055 508.674 1054.47 507.402 1053.54 506.464C1052.6 505.527 1051.33 505 1050 505C1048.67 505 1047.4 505.527 1046.46 506.464C1045.53 507.402 1045 508.674 1045 510V510Z" stroke="#19191B"/>
<path d="M1045 570C1045 571.326 1045.53 572.598 1046.46 573.536C1047.4 574.473 1048.67 575 1050 575C1051.33 575 1052.6 574.473 1053.54 573.536C1054.47 572.598 1055 571.326 1055 570C1055 568.674 1054.47 567.402 1053.54 566.464C1052.6 565.527 1051.33 565 1050 565C1048.67 565 1047.4 565.527 1046.46 566.464C1045.53 567.402 1045 568.674 1045 570V570Z" stroke="#19191B"/>
<path d="M1056 624L1044 636L1056 624Z" stroke="#19191B"/>
<path d="M1052 688L1048 692L1052 688Z" stroke="#19191B"/>
<path d="M1105 30C1105 31.3261 1105.53 32.5979 1106.46 33.5355C1107.4 34.4732 1108.67 35 1110 35C1111.33 35 1112.6 34.4732 1113.54 33.5355C1114.47 32.5979 1115 31.3261 1115 30C1115 28.6739 1114.47 27.4021 1113.54 26.4645C1112.6 25.5268 1111.33 25 1110 25C1108.67 25 1107.4 25.5268 1106.46 26.4645C1105.53 27.4021 1105 28.6739 1105 30V30Z" stroke="#19191B"/>
<path d="M1107 90C1107 90.7956 1107.32 91.5587 1107.88 92.1213C1108.44 92.6839 1109.2 93 1110 93C1110.8 93 1111.56 92.6839 1112.12 92.1213C1112.68 91.5587 1113 90.7956 1113 90C1113 89.2044 1112.68 88.4413 1112.12 87.8787C1111.56 87.3161 1110.8 87 1110 87C1109.2 87 1108.44 87.3161 1107.88 87.8787C1107.32 88.4413 1107 89.2044 1107 90V90Z" stroke="#19191B"/>
<path d="M1109 150C1109 150.265 1109.11 150.52 1109.29 150.707C1109.48 150.895 1109.73 151 1110 151C1110.27 151 1110.52 150.895 1110.71 150.707C1110.89 150.52 1111 150.265 1111 150C1111 149.735 1110.89 149.48 1110.71 149.293C1110.52 149.105 1110.27 149 1110 149C1109.73 149 1109.48 149.105 1109.29 149.293C1109.11 149.48 1109 149.735 1109 150V150Z" stroke="#19191B"/>
<path d="M1105 210C1105 211.326 1105.53 212.598 1106.46 213.536C1107.4 214.473 1108.67 215 1110 215C1111.33 215 1112.6 214.473 1113.54 213.536C1114.47 212.598 1115 211.326 1115 210C1115 208.674 1114.47 207.402 1113.54 206.464C1112.6 205.527 1111.33 205 1110 205C1108.67 205 1107.4 205.527 1106.46 206.464C1105.53 207.402 1105 208.674 1105 210V210Z" stroke="#19191B"/>
<path d="M1105 270C1105 271.326 1105.53 272.598 1106.46 273.536C1107.4 274.473 1108.67 275 1110 275C1111.33 275 1112.6 274.473 1113.54 273.536C1114.47 272.598 1115 271.326 1115 270C1115 268.674 1114.47 267.402 1113.54 266.464C1112.6 265.527 1111.33 265 1110 265C1108.67 265 1107.4 265.527 1106.46 266.464C1105.53 267.402 1105 268.674 1105 270V270Z" stroke="#19191B"/>
<path d="M1140 300L1080 360L1140 300Z" stroke="#19191B" stroke-width="3"/>
<path d="M1105 390C1105 391.326 1105.53 392.598 1106.46 393.536C1107.4 394.473 1108.67 395 1110 395C1111.33 395 1112.6 394.473 1113.54 393.536C1114.47 392.598 1115 391.326 1115 390C1115 388.674 1114.47 387.402 1113.54 386.464C1112.6 385.527 1111.33 385 1110 385C1108.67 385 1107.4 385.527 1106.46 386.464C1105.53 387.402 1105 388.674 1105 390V390Z" stroke="#19191B"/>
<path d="M1105 450C1105 451.326 1105.53 452.598 1106.46 453.536C1107.4 454.473 1108.67 455 1110 455C1111.33 455 1112.6 454.473 1113.54 453.536C1114.47 452.598 1115 451.326 1115 450C1115 448.674 1114.47 447.402 1113.54 446.464C1112.6 445.527 1111.33 445 1110 445C1108.67 445 1107.4 445.527 1106.46 446.464C1105.53 447.402 1105 448.674 1105 450V450Z" stroke="#19191B"/>
<path d="M1116 504L1104 516L1116 504Z" stroke="#19191B"/>
<path d="M1112 568L1108 572L1112 568Z" stroke="#19191B"/>
<path d="M1107 630C1107 630.796 1107.32 631.559 1107.88 632.121C1108.44 632.684 1109.2 633 1110 633C1110.8 633 1111.56 632.684 1112.12 632.121C1112.68 631.559 1113 630.796 1113 630C1113 629.204 1112.68 628.441 1112.12 627.879C1111.56 627.316 1110.8 627 1110 627C1109.2 627 1108.44 627.316 1107.88 627.879C1107.32 628.441 1107 629.204 1107 630V630Z" stroke="#19191B"/>
<path d="M1112 688L1108 692L1112 688Z" stroke="#19191B"/>
<path d="M1167 30C1167 30.7956 1167.32 31.5587 1167.88 32.1213C1168.44 32.6839 1169.2 33 1170 33C1170.8 33 1171.56 32.6839 1172.12 32.1213C1172.68 31.5587 1173 30.7956 1173 30C1173 29.2044 1172.68 28.4413 1172.12 27.8787C1171.56 27.3161 1170.8 27 1170 27C1169.2 27 1168.44 27.3161 1167.88 27.8787C1167.32 28.4413 1167 29.2044 1167 30V30Z" stroke="#19191B"/>
<path d="M1165 90C1165 91.3261 1165.53 92.5979 1166.46 93.5355C1167.4 94.4732 1168.67 95 1170 95C1171.33 95 1172.6 94.4732 1173.54 93.5355C1174.47 92.5979 1175 91.3261 1175 90C1175 88.6739 1174.47 87.4021 1173.54 86.4645C1172.6 85.5268 1171.33 85 1170 85C1168.67 85 1167.4 85.5268 1166.46 86.4645C1165.53 87.4021 1165 88.6739 1165 90V90Z" stroke="#19191B"/>
<path d="M1167 150C1167 150.796 1167.32 151.559 1167.88 152.121C1168.44 152.684 1169.2 153 1170 153C1170.8 153 1171.56 152.684 1172.12 152.121C1172.68 151.559 1173 150.796 1173 150C1173 149.204 1172.68 148.441 1172.12 147.879C1171.56 147.316 1170.8 147 1170 147C1169.2 147 1168.44 147.316 1167.88 147.879C1167.32 148.441 1167 149.204 1167 150V150Z" stroke="#19191B"/>
<path d="M1169 210C1169 210.265 1169.11 210.52 1169.29 210.707C1169.48 210.895 1169.73 211 1170 211C1170.27 211 1170.52 210.895 1170.71 210.707C1170.89 210.52 1171 210.265 1171 210C1171 209.735 1170.89 209.48 1170.71 209.293C1170.52 209.105 1170.27 209 1170 209C1169.73 209 1169.48 209.105 1169.29 209.293C1169.11 209.48 1169 209.735 1169 210V210Z" stroke="#19191B"/>
<path d="M1176 264L1164 276L1176 264Z" stroke="#19191B"/>
<path d="M1172 328L1168 332L1172 328Z" stroke="#19191B"/>
<path d="M1176 384L1164 396L1176 384Z" stroke="#19191B"/>
<path d="M1172 448L1168 452L1172 448Z" stroke="#19191B"/>
<path d="M1165 510C1165 511.326 1165.53 512.598 1166.46 513.536C1167.4 514.473 1168.67 515 1170 515C1171.33 515 1172.6 514.473 1173.54 513.536C1174.47 512.598 1175 511.326 1175 510C1175 508.674 1174.47 507.402 1173.54 506.464C1172.6 505.527 1171.33 505 1170 505C1168.67 505 1167.4 505.527 1166.46 506.464C1165.53 507.402 1165 508.674 1165 510V510Z" stroke="#19191B"/>
<path d="M1165 570C1165 571.326 1165.53 572.598 1166.46 573.536C1167.4 574.473 1168.67 575 1170 575C1171.33 575 1172.6 574.473 1173.54 573.536C1174.47 572.598 1175 571.326 1175 570C1175 568.674 1174.47 567.402 1173.54 566.464C1172.6 565.527 1171.33 565 1170 565C1168.67 565 1167.4 565.527 1166.46 566.464C1165.53 567.402 1165 568.674 1165 570V570Z" stroke="#19191B"/>
<path d="M1172 628L1168 632L1172 628Z" stroke="#19191B"/>
<path d="M1165 690C1165 691.326 1165.53 692.598 1166.46 693.536C1167.4 694.473 1168.67 695 1170 695C1171.33 695 1172.6 694.473 1173.54 693.536C1174.47 692.598 1175 691.326 1175 690C1175 688.674 1174.47 687.402 1173.54 686.464C1172.6 685.527 1171.33 685 1170 685C1168.67 685 1167.4 685.527 1166.46 686.464C1165.53 687.402 1165 688.674 1165 690V690Z" stroke="#19191B"/>
<path d="M1227 30C1227 30.7956 1227.32 31.5587 1227.88 32.1213C1228.44 32.6839 1229.2 33 1230 33C1230.8 33 1231.56 32.6839 1232.12 32.1213C1232.68 31.5587 1233 30.7956 1233 30C1233 29.2044 1232.68 28.4413 1232.12 27.8787C1231.56 27.3161 1230.8 27 1230 27C1229.2 27 1228.44 27.3161 1227.88 27.8787C1227.32 28.4413 1227 29.2044 1227 30V30Z" stroke="#19191B"/>
<path d="M1232 88L1228 92L1232 88Z" stroke="#19191B"/>
<path d="M1227 150C1227 150.796 1227.32 151.559 1227.88 152.121C1228.44 152.684 1229.2 153 1230 153C1230.8 153 1231.56 152.684 1232.12 152.121C1232.68 151.559 1233 150.796 1233 150C1233 149.204 1232.68 148.441 1232.12 147.879C1231.56 147.316 1230.8 147 1230 147C1229.2 147 1228.44 147.316 1227.88 147.879C1227.32 148.441 1227 149.204 1227 150V150Z" stroke="#19191B"/>
<path d="M1225 210C1225 211.326 1225.53 212.598 1226.46 213.536C1227.4 214.473 1228.67 215 1230 215C1231.33 215 1232.6 214.473 1233.54 213.536C1234.47 212.598 1235 211.326 1235 210C1235 208.674 1234.47 207.402 1233.54 206.464C1232.6 205.527 1231.33 205 1230 205C1228.67 205 1227.4 205.527 1226.46 206.464C1225.53 207.402 1225 208.674 1225 210V210Z" stroke="#19191B"/>
<path d="M1225 270C1225 271.326 1225.53 272.598 1226.46 273.536C1227.4 274.473 1228.67 275 1230 275C1231.33 275 1232.6 274.473 1233.54 273.536C1234.47 272.598 1235 271.326 1235 270C1235 268.674 1234.47 267.402 1233.54 266.464C1232.6 265.527 1231.33 265 1230 265C1228.67 265 1227.4 265.527 1226.46 266.464C1225.53 267.402 1225 268.674 1225 270V270Z" stroke="#19191B"/>
<path d="M1227 330C1227 330.796 1227.32 331.559 1227.88 332.121C1228.44 332.684 1229.2 333 1230 333C1230.8 333 1231.56 332.684 1232.12 332.121C1232.68 331.559 1233 330.796 1233 330C1233 329.204 1232.68 328.441 1232.12 327.879C1231.56 327.316 1230.8 327 1230 327C1229.2 327 1228.44 327.316 1227.88 327.879C1227.32 328.441 1227 329.204 1227 330V330Z" stroke="#19191B"/>
<path d="M1225 390C1225 391.326 1225.53 392.598 1226.46 393.536C1227.4 394.473 1228.67 395 1230 395C1231.33 395 1232.6 394.473 1233.54 393.536C1234.47 392.598 1235 391.326 1235 390C1235 388.674 1234.47 387.402 1233.54 386.464C1232.6 385.527 1231.33 385 1230 385C1228.67 385 1227.4 385.527 1226.46 386.464C1225.53 387.402 1225 388.674 1225 390V390Z" stroke="#19191B"/>
<path d="M1225 450C1225 451.326 1225.53 452.598 1226.46 453.536C1227.4 454.473 1228.67 455 1230 455C1231.33 455 1232.6 454.473 1233.54 453.536C1234.47 452.598 1235 451.326 1235 450C1235 448.674 1234.47 447.402 1233.54 446.464C1232.6 445.527 1231.33 445 1230 445C1228.67 445 1227.4 445.527 1226.46 446.464C1225.53 447.402 1225 448.674 1225 450V450Z" stroke="#19191B"/>
<path d="M1260 480L1200 540L1260 480Z" stroke="#19191B" stroke-width="3"/>
<path d="M1227 570C1227 570.796 1227.32 571.559 1227.88 572.121C1228.44 572.684 1229.2 573 1230 573C1230.8 573 1231.56 572.684 1232.12 572.121C1232.68 571.559 1233 570.796 1233 570C1233 569.204 1232.68 568.441 1232.12 567.879C1231.56 567.316 1230.8 567 1230 567C1229.2 567 1228.44 567.316 1227.88 567.879C1227.32 568.441 1227 569.204 1227 570V570Z" stroke="#19191B"/>
<path d="M1236 624L1224 636L1236 624Z" stroke="#19191B"/>
<path d="M1229 690C1229 690.265 1229.11 690.52 1229.29 690.707C1229.48 690.895 1229.73 691 1230 691C1230.27 691 1230.52 690.895 1230.71 690.707C1230.89 690.52 1231 690.265 1231 690C1231 689.735 1230.89 689.48 1230.71 689.293C1230.52 689.105 1230.27 689 1230 689C1229.73 689 1229.48 689.105 1229.29 689.293C1229.11 689.48 1229 689.735 1229 690V690Z" stroke="#19191B"/>
<path d="M752 748L748 752L752 748Z" stroke="#19191B"/>
<path d="M745 810C745 811.326 745.527 812.598 746.464 813.536C747.402 814.473 748.674 815 750 815C751.326 815 752.598 814.473 753.536 813.536C754.473 812.598 755 811.326 755 810C755 808.674 754.473 807.402 753.536 806.464C752.598 805.527 751.326 805 750 805C748.674 805 747.402 805.527 746.464 806.464C745.527 807.402 745 808.674 745 810V810Z" stroke="#19191B"/>
<path d="M747 870C747 870.796 747.316 871.559 747.879 872.121C748.441 872.684 749.204 873 750 873C750.796 873 751.559 872.684 752.121 872.121C752.684 871.559 753 870.796 753 870C753 869.204 752.684 868.441 752.121 867.879C751.559 867.316 750.796 867 750 867C749.204 867 748.441 867.316 747.879 867.879C747.316 868.441 747 869.204 747 870V870Z" stroke="#19191B"/>
<path d="M752 928L748 932L752 928Z" stroke="#19191B"/>
<path d="M756 984L744 996L756 984Z" stroke="#19191B"/>
<path d="M752 1048L748 1052L752 1048Z" stroke="#19191B"/>
<path d="M816 744L804 756L816 744Z" stroke="#19191B"/>
<path d="M805 810C805 811.326 805.527 812.598 806.464 813.536C807.402 814.473 808.674 815 810 815C811.326 815 812.598 814.473 813.536 813.536C814.473 812.598 815 811.326 815 810C815 808.674 814.473 807.402 813.536 806.464C812.598 805.527 811.326 805 810 805C808.674 805 807.402 805.527 806.464 806.464C805.527 807.402 805 808.674 805 810V810Z" stroke="#19191B"/>
<path d="M805 870C805 871.326 805.527 872.598 806.464 873.536C807.402 874.473 808.674 875 810 875C811.326 875 812.598 874.473 813.536 873.536C814.473 872.598 815 871.326 815 870C815 868.674 814.473 867.402 813.536 866.464C812.598 865.527 811.326 865 810 865C808.674 865 807.402 865.527 806.464 866.464C805.527 867.402 805 868.674 805 870V870Z" stroke="#19191B"/>
<path d="M812 928L808 932L812 928Z" stroke="#19191B"/>
<path d="M805 990C805 991.326 805.527 992.598 806.464 993.536C807.402 994.473 808.674 995 810 995C811.326 995 812.598 994.473 813.536 993.536C814.473 992.598 815 991.326 815 990C815 988.674 814.473 987.402 813.536 986.464C812.598 985.527 811.326 985 810 985C808.674 985 807.402 985.527 806.464 986.464C805.527 987.402 805 988.674 805 990V990Z" stroke="#19191B"/>
<path d="M840 1020L780 1080L840 1020Z" stroke="#19191B" stroke-width="3"/>
<path d="M867 750C867 750.796 867.316 751.559 867.879 752.121C868.441 752.684 869.204 753 870 753C870.796 753 871.559 752.684 872.121 752.121C872.684 751.559 873 750.796 873 750C873 749.204 872.684 748.441 872.121 747.879C871.559 747.316 870.796 747 870 747C869.204 747 868.441 747.316 867.879 747.879C867.316 748.441 867 749.204 867 750V750Z" stroke="#19191B"/>
<path d="M900 780L840 840L900 780Z" stroke="#19191B" stroke-width="3"/>
<path d="M865 870C865 871.326 865.527 872.598 866.464 873.536C867.402 874.473 868.674 875 870 875C871.326 875 872.598 874.473 873.536 873.536C874.473 872.598 875 871.326 875 870C875 868.674 874.473 867.402 873.536 866.464C872.598 865.527 871.326 865 870 865C868.674 865 867.402 865.527 866.464 866.464C865.527 867.402 865 868.674 865 870V870Z" stroke="#19191B"/>
<path d="M876 924L864 936L876 924Z" stroke="#19191B"/>
<path d="M865 990C865 991.326 865.527 992.598 866.464 993.536C867.402 994.473 868.674 995 870 995C871.326 995 872.598 994.473 873.536 993.536C874.473 992.598 875 991.326 875 990C875 988.674 874.473 987.402 873.536 986.464C872.598 985.527 871.326 985 870 985C868.674 985 867.402 985.527 866.464 986.464C865.527 987.402 865 988.674 865 990V990Z" stroke="#19191B"/>
<path d="M865 1050C865 1051.33 865.527 1052.6 866.464 1053.54C867.402 1054.47 868.674 1055 870 1055C871.326 1055 872.598 1054.47 873.536 1053.54C874.473 1052.6 875 1051.33 875 1050C875 1048.67 874.473 1047.4 873.536 1046.46C872.598 1045.53 871.326 1045 870 1045C868.674 1045 867.402 1045.53 866.464 1046.46C865.527 1047.4 865 1048.67 865 1050V1050Z" stroke="#19191B"/>
<path d="M936 744L924 756L936 744Z" stroke="#19191B"/>
<path d="M960 780L900 840L960 780Z" stroke="#19191B" stroke-width="3"/>
<path d="M927 870C927 870.796 927.316 871.559 927.879 872.121C928.441 872.684 929.204 873 930 873C930.796 873 931.559 872.684 932.121 872.121C932.684 871.559 933 870.796 933 870C933 869.204 932.684 868.441 932.121 867.879C931.559 867.316 930.796 867 930 867C929.204 867 928.441 867.316 927.879 867.879C927.316 868.441 927 869.204 927 870V870Z" stroke="#19191B"/>
<path d="M936 924L924 936L936 924Z" stroke="#19191B"/>
<path d="M936 984L924 996L936 984Z" stroke="#19191B"/>
<path d="M929 1050C929 1050.27 929.105 1050.52 929.293 1050.71C929.48 1050.89 929.735 1051 930 1051C930.265 1051 930.52 1050.89 930.707 1050.71C930.895 1050.52 931 1050.27 931 1050C931 1049.73 930.895 1049.48 930.707 1049.29C930.52 1049.11 930.265 1049 930 1049C929.735 1049 929.48 1049.11 929.293 1049.29C929.105 1049.48 929 1049.73 929 1050V1050Z" stroke="#19191B"/>
<path d="M985 750C985 751.326 985.527 752.598 986.464 753.536C987.402 754.473 988.674 755 990 755C991.326 755 992.598 754.473 993.536 753.536C994.473 752.598 995 751.326 995 750C995 748.674 994.473 747.402 993.536 746.464C992.598 745.527 991.326 745 990 745C988.674 745 987.402 745.527 986.464 746.464C985.527 747.402 985 748.674 985 750V750Z" stroke="#19191B"/>
<path d="M987 810C987 810.796 987.316 811.559 987.879 812.121C988.441 812.684 989.204 813 990 813C990.796 813 991.559 812.684 992.121 812.121C992.684 811.559 993 810.796 993 810C993 809.204 992.684 808.441 992.121 807.879C991.559 807.316 990.796 807 990 807C989.204 807 988.441 807.316 987.879 807.879C987.316 808.441 987 809.204 987 810V810Z" stroke="#19191B"/>
<path d="M996 864L984 876L996 864Z" stroke="#19191B"/>
<path d="M985 930C985 931.326 985.527 932.598 986.464 933.536C987.402 934.473 988.674 935 990 935C991.326 935 992.598 934.473 993.536 933.536C994.473 932.598 995 931.326 995 930C995 928.674 994.473 927.402 993.536 926.464C992.598 925.527 991.326 925 990 925C988.674 925 987.402 925.527 986.464 926.464C985.527 927.402 985 928.674 985 930V930Z" stroke="#19191B"/>
<path d="M992 988L988 992L992 988Z" stroke="#19191B"/>
<path d="M996 1044L984 1056L996 1044Z" stroke="#19191B"/>
<path d="M1045 750C1045 751.326 1045.53 752.598 1046.46 753.536C1047.4 754.473 1048.67 755 1050 755C1051.33 755 1052.6 754.473 1053.54 753.536C1054.47 752.598 1055 751.326 1055 750C1055 748.674 1054.47 747.402 1053.54 746.464C1052.6 745.527 1051.33 745 1050 745C1048.67 745 1047.4 745.527 1046.46 746.464C1045.53 747.402 1045 748.674 1045 750V750Z" stroke="#19191B"/>
<path d="M1056 804L1044 816L1056 804Z" stroke="#19191B"/>
<path d="M1080 840L1020 900L1080 840Z" stroke="#19191B" stroke-width="3"/>
<path d="M1049 930C1049 930.265 1049.11 930.52 1049.29 930.707C1049.48 930.895 1049.73 931 1050 931C1050.27 931 1050.52 930.895 1050.71 930.707C1050.89 930.52 1051 930.265 1051 930C1051 929.735 1050.89 929.48 1050.71 929.293C1050.52 929.105 1050.27 929 1050 929C1049.73 929 1049.48 929.105 1049.29 929.293C1049.11 929.48 1049 929.735 1049 930V930Z" stroke="#19191B"/>
<path d="M1045 990C1045 991.326 1045.53 992.598 1046.46 993.536C1047.4 994.473 1048.67 995 1050 995C1051.33 995 1052.6 994.473 1053.54 993.536C1054.47 992.598 1055 991.326 1055 990C1055 988.674 1054.47 987.402 1053.54 986.464C1052.6 985.527 1051.33 985 1050 985C1048.67 985 1047.4 985.527 1046.46 986.464C1045.53 987.402 1045 988.674 1045 990V990Z" stroke="#19191B"/>
<path d="M1047 1050C1047 1050.8 1047.32 1051.56 1047.88 1052.12C1048.44 1052.68 1049.2 1053 1050 1053C1050.8 1053 1051.56 1052.68 1052.12 1052.12C1052.68 1051.56 1053 1050.8 1053 1050C1053 1049.2 1052.68 1048.44 1052.12 1047.88C1051.56 1047.32 1050.8 1047 1050 1047C1049.2 1047 1048.44 1047.32 1047.88 1047.88C1047.32 1048.44 1047 1049.2 1047 1050V1050Z" stroke="#19191B"/>
<path d="M1105 750C1105 751.326 1105.53 752.598 1106.46 753.536C1107.4 754.473 1108.67 755 1110 755C1111.33 755 1112.6 754.473 1113.54 753.536C1114.47 752.598 1115 751.326 1115 750C1115 748.674 1114.47 747.402 1113.54 746.464C1112.6 745.527 1111.33 745 1110 745C1108.67 745 1107.4 745.527 1106.46 746.464C1105.53 747.402 1105 748.674 1105 750V750Z" stroke="#19191B"/>
<path d="M1107 810C1107 810.796 1107.32 811.559 1107.88 812.121C1108.44 812.684 1109.2 813 1110 813C1110.8 813 1111.56 812.684 1112.12 812.121C1112.68 811.559 1113 810.796 1113 810C1113 809.204 1112.68 808.441 1112.12 807.879C1111.56 807.316 1110.8 807 1110 807C1109.2 807 1108.44 807.316 1107.88 807.879C1107.32 808.441 1107 809.204 1107 810V810Z" stroke="#19191B"/>
<path d="M1109 870C1109 870.265 1109.11 870.52 1109.29 870.707C1109.48 870.895 1109.73 871 1110 871C1110.27 871 1110.52 870.895 1110.71 870.707C1110.89 870.52 1111 870.265 1111 870C1111 869.735 1110.89 869.48 1110.71 869.293C1110.52 869.105 1110.27 869 1110 869C1109.73 869 1109.48 869.105 1109.29 869.293C1109.11 869.48 1109 869.735 1109 870V870Z" stroke="#19191B"/>
<path d="M1105 930C1105 931.326 1105.53 932.598 1106.46 933.536C1107.4 934.473 1108.67 935 1110 935C1111.33 935 1112.6 934.473 1113.54 933.536C1114.47 932.598 1115 931.326 1115 930C1115 928.674 1114.47 927.402 1113.54 926.464C1112.6 925.527 1111.33 925 1110 925C1108.67 925 1107.4 925.527 1106.46 926.464C1105.53 927.402 1105 928.674 1105 930V930Z" stroke="#19191B"/>
<path d="M1105 990C1105 991.326 1105.53 992.598 1106.46 993.536C1107.4 994.473 1108.67 995 1110 995C1111.33 995 1112.6 994.473 1113.54 993.536C1114.47 992.598 1115 991.326 1115 990C1115 988.674 1114.47 987.402 1113.54 986.464C1112.6 985.527 1111.33 985 1110 985C1108.67 985 1107.4 985.527 1106.46 986.464C1105.53 987.402 1105 988.674 1105 990V990Z" stroke="#19191B"/>
<path d="M1140 1020L1080 1080L1140 1020Z" stroke="#19191B" stroke-width="3"/>
<path d="M1167 750C1167 750.796 1167.32 751.559 1167.88 752.121C1168.44 752.684 1169.2 753 1170 753C1170.8 753 1171.56 752.684 1172.12 752.121C1172.68 751.559 1173 750.796 1173 750C1173 749.204 1172.68 748.441 1172.12 747.879C1171.56 747.316 1170.8 747 1170 747C1169.2 747 1168.44 747.316 1167.88 747.879C1167.32 748.441 1167 749.204 1167 750V750Z" stroke="#19191B"/>
<path d="M1165 810C1165 811.326 1165.53 812.598 1166.46 813.536C1167.4 814.473 1168.67 815 1170 815C1171.33 815 1172.6 814.473 1173.54 813.536C1174.47 812.598 1175 811.326 1175 810C1175 808.674 1174.47 807.402 1173.54 806.464C1172.6 805.527 1171.33 805 1170 805C1168.67 805 1167.4 805.527 1166.46 806.464C1165.53 807.402 1165 808.674 1165 810V810Z" stroke="#19191B"/>
<path d="M1167 870C1167 870.796 1167.32 871.559 1167.88 872.121C1168.44 872.684 1169.2 873 1170 873C1170.8 873 1171.56 872.684 1172.12 872.121C1172.68 871.559 1173 870.796 1173 870C1173 869.204 1172.68 868.441 1172.12 867.879C1171.56 867.316 1170.8 867 1170 867C1169.2 867 1168.44 867.316 1167.88 867.879C1167.32 868.441 1167 869.204 1167 870V870Z" stroke="#19191B"/>
<path d="M1169 930C1169 930.265 1169.11 930.52 1169.29 930.707C1169.48 930.895 1169.73 931 1170 931C1170.27 931 1170.52 930.895 1170.71 930.707C1170.89 930.52 1171 930.265 1171 930C1171 929.735 1170.89 929.48 1170.71 929.293C1170.52 929.105 1170.27 929 1170 929C1169.73 929 1169.48 929.105 1169.29 929.293C1169.11 929.48 1169 929.735 1169 930V930Z" stroke="#19191B"/>
<path d="M1176 984L1164 996L1176 984Z" stroke="#19191B"/>
<path d="M1172 1048L1168 1052L1172 1048Z" stroke="#19191B"/>
<path d="M1227 750C1227 750.796 1227.32 751.559 1227.88 752.121C1228.44 752.684 1229.2 753 1230 753C1230.8 753 1231.56 752.684 1232.12 752.121C1232.68 751.559 1233 750.796 1233 750C1233 749.204 1232.68 748.441 1232.12 747.879C1231.56 747.316 1230.8 747 1230 747C1229.2 747 1228.44 747.316 1227.88 747.879C1227.32 748.441 1227 749.204 1227 750V750Z" stroke="#19191B"/>
<path d="M1232 808L1228 812L1232 808Z" stroke="#19191B"/>
<path d="M1227 870C1227 870.796 1227.32 871.559 1227.88 872.121C1228.44 872.684 1229.2 873 1230 873C1230.8 873 1231.56 872.684 1232.12 872.121C1232.68 871.559 1233 870.796 1233 870C1233 869.204 1232.68 868.441 1232.12 867.879C1231.56 867.316 1230.8 867 1230 867C1229.2 867 1228.44 867.316 1227.88 867.879C1227.32 868.441 1227 869.204 1227 870V870Z" stroke="#19191B"/>
<path d="M1225 930C1225 931.326 1225.53 932.598 1226.46 933.536C1227.4 934.473 1228.67 935 1230 935C1231.33 935 1232.6 934.473 1233.54 933.536C1234.47 932.598 1235 931.326 1235 930C1235 928.674 1234.47 927.402 1233.54 926.464C1232.6 925.527 1231.33 925 1230 925C1228.67 925 1227.4 925.527 1226.46 926.464C1225.53 927.402 1225 928.674 1225 930V930Z" stroke="#19191B"/>
<path d="M1225 990C1225 991.326 1225.53 992.598 1226.46 993.536C1227.4 994.473 1228.67 995 1230 995C1231.33 995 1232.6 994.473 1233.54 993.536C1234.47 992.598 1235 991.326 1235 990C1235 988.674 1234.47 987.402 1233.54 986.464C1232.6 985.527 1231.33 985 1230 985C1228.67 985 1227.4 985.527 1226.46 986.464C1225.53 987.402 1225 988.674 1225 990V990Z" stroke="#19191B"/>
<path d="M1227 1050C1227 1050.8 1227.32 1051.56 1227.88 1052.12C1228.44 1052.68 1229.2 1053 1230 1053C1230.8 1053 1231.56 1052.68 1232.12 1052.12C1232.68 1051.56 1233 1050.8 1233 1050C1233 1049.2 1232.68 1048.44 1232.12 1047.88C1231.56 1047.32 1230.8 1047 1230 1047C1229.2 1047 1228.44 1047.32 1227.88 1047.88C1227.32 1048.44 1227 1049.2 1227 1050V1050Z" stroke="#19191B"/>
</g>
</g>
<defs>
<clipPath id="clip0_1_839">
<rect width="1259" height="1080" fill="white"/>
</clipPath>
</defs>
</svg>
